<svg width="40" height="40" viewBox="0 0 40 40" fill="none" xmlns="http://www.w3.org/2000/svg">
<path d="M0 31.8519V6.66667C0.00215626 4.89922 0.705227 3.20478 1.955 1.955C3.20478 0.705227 4.89922 0.00215626 6.66667 0H31.8518C33.6193 0.00215626 35.3137 0.705227 36.5635 1.955C37.8133 3.20478 38.5164 4.89922 38.5185 6.66667V23.7037C38.5185 23.9002 38.4405 24.0886 38.3016 24.2275C38.1626 24.3664 37.9742 24.4444 37.7778 24.4444C37.5813 24.4444 37.3929 24.3664 37.254 24.2275C37.1151 24.0886 37.037 23.9002 37.037 23.7037V6.66667C37.0355 5.29195 36.4887 3.97399 35.5166 3.00192C34.5445 2.02985 33.2266 1.48305 31.8518 1.48148H6.66667C5.29195 1.48305 3.97399 2.02985 3.00192 3.00192C2.02985 3.97399 1.48305 5.29195 1.48148 6.66667V31.8519C1.48305 33.2266 2.02985 34.5445 3.00192 35.5166C3.97399 36.4887 5.29195 37.0355 6.66667 37.037H23.7037C23.9002 37.037 24.0886 37.1151 24.2275 37.254C24.3664 37.3929 24.4444 37.5813 24.4444 37.7778C24.4444 37.9742 24.3664 38.1626 24.2275 38.3016C24.0886 38.4405 23.9002 38.5185 23.7037 38.5185H6.66667C4.89922 38.5164 3.20478 37.8133 1.955 36.5635C0.705227 35.3137 0.00215626 33.6193 0 31.8519ZM11.8519 19.2593C11.8519 19.8453 11.6781 20.4181 11.3525 20.9054C11.0269 21.3927 10.5642 21.7724 10.0228 21.9967C9.48135 22.2209 8.8856 22.2796 8.31084 22.1653C7.73608 22.051 7.20813 21.7688 6.79376 21.3544C6.37938 20.94 6.09718 20.4121 5.98286 19.8373C5.86853 19.2625 5.92721 18.6668 6.15147 18.1254C6.37573 17.584 6.7555 17.1212 7.24275 16.7956C7.73001 16.4701 8.30287 16.2963 8.88889 16.2963C9.67471 16.2963 10.4284 16.6085 10.984 17.1641C11.5397 17.7198 11.8519 18.4734 11.8519 19.2593ZM10.3704 19.2593C10.3704 18.9662 10.2835 18.6798 10.1207 18.4362C9.95791 18.1926 9.72653 18.0027 9.45583 17.8905C9.18512 17.7784 8.88724 17.7491 8.59987 17.8062C8.31249 17.8634 8.04851 18.0045 7.84132 18.2117C7.63413 18.4189 7.49304 18.6829 7.43587 18.9702C7.37871 19.2576 7.40805 19.5555 7.52018 19.8262C7.63231 20.0969 7.82219 20.3283 8.06582 20.4911C8.30945 20.6539 8.59588 20.7407 8.88889 20.7407C9.2818 20.7407 9.65862 20.5847 9.93645 20.3068C10.2143 20.029 10.3704 19.6522 10.3704 19.2593ZM32.5926 19.2593C32.5926 19.0628 32.5145 18.8744 32.3756 18.7355C32.2367 18.5966 32.0483 18.5185 31.8518 18.5185H15.5556C15.3591 18.5185 15.1707 18.5966 15.0318 18.7355C14.8929 18.8744 14.8148 19.0628 14.8148 19.2593C14.8148 19.4557 14.8929 19.6441 15.0318 19.783C15.1707 19.922 15.3591 20 15.5556 20H31.8518C32.0483 20 32.2367 19.922 32.3756 19.783C32.5145 19.6441 32.5926 19.4557 32.5926 19.2593ZM11.8519 8.88889C11.8519 9.47491 11.6781 10.0478 11.3525 10.535C11.0269 11.0223 10.5642 11.402 10.0228 11.6263C9.48135 11.8506 8.8856 11.9092 8.31084 11.7949C7.73608 11.6806 7.20813 11.3984 6.79376 10.984C6.37938 10.5696 6.09718 10.0417 5.98286 9.46693C5.86853 8.89218 5.92721 8.29642 6.15147 7.75501C6.37573 7.2136 6.7555 6.75085 7.24275 6.42528C7.73001 6.0997 8.30287 5.92593 8.88889 5.92593C9.67471 5.92593 10.4284 6.23809 10.984 6.79376C11.5397 7.34942 11.8519 8.10306 11.8519 8.88889ZM10.3704 8.88889C10.3704 8.59588 10.2835 8.30945 10.1207 8.06582C9.95791 7.82219 9.72653 7.63231 9.45583 7.52018C9.18512 7.40805 8.88724 7.37871 8.59987 7.43587C8.31249 7.49304 8.04851 7.63413 7.84132 7.84132C7.63413 8.04851 7.49304 8.31249 7.43587 8.59987C7.37871 8.88725 7.40805 9.18512 7.52018 9.45583C7.63231 9.72653 7.82219 9.95791 8.06582 10.1207C8.30945 10.2835 8.59588 10.3704 8.88889 10.3704C9.2818 10.3704 9.65862 10.2143 9.93645 9.93645C10.2143 9.65862 10.3704 9.2818 10.3704 8.88889ZM31.8518 8.14815H15.5556C15.3591 8.14815 15.1707 8.22619 15.0318 8.36511C14.8929 8.50402 14.8148 8.69243 14.8148 8.88889C14.8148 9.08535 14.8929 9.27376 15.0318 9.41267C15.1707 9.55159 15.3591 9.62963 15.5556 9.62963H31.8518C32.0483 9.62963 32.2367 9.55159 32.3756 9.41267C32.5145 9.27376 32.5926 9.08535 32.5926 8.88889C32.5926 8.69243 32.5145 8.50402 32.3756 8.36511C32.2367 8.22619 32.0483 8.14815 31.8518 8.14815ZM11.8519 29.6296C11.8519 30.2156 11.6781 30.7885 11.3525 31.2758C11.0269 31.763 10.5642 32.1428 10.0228 32.367C9.48135 32.5913 8.8856 32.65 8.31084 32.5357C7.73608 32.4213 7.20813 32.1391 6.79376 31.7248C6.37938 31.3104 6.09718 30.7824 5.98286 30.2077C5.86853 29.6329 5.92721 29.0372 6.15147 28.4958C6.37573 27.9543 6.7555 27.4916 7.24275 27.166C7.73001 26.8404 8.30287 26.6667 8.88889 26.6667C9.67471 26.6667 10.4284 26.9788 10.984 27.5345C11.5397 28.0902 11.8519 28.8438 11.8519 29.6296ZM10.3704 29.6296C10.3704 29.3366 10.2835 29.0502 10.1207 28.8066C9.95791 28.5629 9.72653 28.373 9.45583 28.2609C9.18512 28.1488 8.88724 28.1195 8.59987 28.1766C8.31249 28.2338 8.04851 28.3749 7.84132 28.5821C7.63413 28.7893 7.49304 29.0532 7.43587 29.3406C7.37871 29.628 7.40805 29.9259 7.52018 30.1966C7.63231 30.4673 7.82219 30.6986 8.06582 30.8614C8.30945 31.0242 8.59588 31.1111 8.88889 31.1111C9.2818 31.1111 9.65862 30.955 9.93645 30.6772C10.2143 30.3994 10.3704 30.0225 10.3704 29.6296ZM15.5556 28.8889C15.3591 28.8889 15.1707 28.9669 15.0318 29.1058C14.8929 29.2448 14.8148 29.4332 14.8148 29.6296C14.8148 29.8261 14.8929 30.0145 15.0318 30.1534C15.1707 30.2923 15.3591 30.3704 15.5556 30.3704H22.2222C22.4187 30.3704 22.6071 30.2923 22.746 30.1534C22.8849 30.0145 22.963 29.8261 22.963 29.6296C22.963 29.4332 22.8849 29.2448 22.746 29.1058C22.6071 28.9669 22.4187 28.8889 22.2222 28.8889H15.5556ZM40 32.5926C40 34.0576 39.5656 35.4898 38.7516 36.7079C37.9377 37.9261 36.7808 38.8755 35.4273 39.4361C34.0738 39.9968 32.5844 40.1435 31.1475 39.8577C29.7106 39.5719 28.3907 38.8664 27.3548 37.8304C26.3188 36.7945 25.6133 35.4746 25.3275 34.0377C25.0417 32.6008 25.1884 31.1114 25.749 29.7579C26.3097 28.4044 27.2591 27.2475 28.4773 26.4336C29.6954 25.6196 31.1275 25.1852 32.5926 25.1852C34.5565 25.1873 36.4393 25.9685 37.828 27.3571C39.2167 28.7458 39.9978 30.6287 40 32.5926ZM38.5185 32.5926C38.5185 31.4206 38.171 30.2748 37.5198 29.3003C36.8687 28.3258 35.9432 27.5663 34.8603 27.1177C33.7775 26.6692 32.586 26.5519 31.4365 26.7805C30.287 27.0092 29.2311 27.5736 28.4023 28.4023C27.5736 29.2311 27.0092 30.287 26.7805 31.4365C26.5519 32.586 26.6692 33.7775 27.1177 34.8603C27.5663 35.9432 28.3258 36.8687 29.3003 37.5198C30.2748 38.171 31.4206 38.5185 32.5926 38.5185C34.1637 38.5168 35.67 37.8919 36.7809 36.7809C37.8918 35.67 38.5167 34.1637 38.5185 32.5926ZM35.5556 31.8519H33.3333V29.6296C33.3333 29.4332 33.2553 29.2448 33.1164 29.1058C32.9775 28.9669 32.789 28.8889 32.5926 28.8889C32.3961 28.8889 32.2077 28.9669 32.0688 29.1058C31.9299 29.2448 31.8518 29.4332 31.8518 29.6296V31.8519H29.6296C29.4332 31.8519 29.2448 31.9299 29.1058 32.0688C28.9669 32.2077 28.8889 32.3961 28.8889 32.5926C28.8889 32.789 28.9669 32.9775 29.1058 33.1164C29.2448 33.2553 29.4332 33.3333 29.6296 33.3333H31.8518V35.5556C31.8518 35.752 31.9299 35.9404 32.0688 36.0793C32.2077 36.2183 32.3961 36.2963 32.5926 36.2963C32.789 36.2963 32.9775 36.2183 33.1164 36.0793C33.2553 35.9404 33.3333 35.752 33.3333 35.5556V33.3333H35.5556C35.752 33.3333 35.9404 33.2553 36.0793 33.1164C36.2183 32.9775 36.2963 32.789 36.2963 32.5926C36.2963 32.3961 36.2183 32.2077 36.0793 32.0688C35.9404 31.9299 35.752 31.8519 35.5556 31.8519Z" fill="black"/>
</svg>
