<svg width="40" height="40" viewBox="0 0 40 40" fill="none" xmlns="http://www.w3.org/2000/svg">
<path d="M20 0C16.4986 0.000907409 13.0587 0.920738 10.0242 2.66756C6.98967 4.41438 4.46682 6.927 2.70777 9.9543C0.948714 12.9816 0.0150817 16.4175 0.000181193 19.9187C-0.0147193 23.4199 0.889634 26.8636 2.62286 29.9058L0.821976 36.2087C0.704416 36.6202 0.699044 37.0556 0.806418 37.4699C0.913792 37.8842 1.13 38.2622 1.43265 38.5648C1.73529 38.8674 2.11336 39.0836 2.52767 39.1909C2.94198 39.2983 3.37746 39.2929 3.78898 39.1753L10.0923 37.3746C12.7535 38.8917 15.7276 39.7773 18.7853 39.9632C21.843 40.149 24.9025 39.63 27.7278 38.4464C30.5532 37.2627 33.0689 35.4459 35.0809 33.1361C37.0929 30.8264 38.5474 28.0853 39.3323 25.1245C40.1172 22.1636 40.2115 19.0621 39.6078 16.059C39.0042 13.056 37.7188 10.2317 35.8508 7.80402C33.9828 5.37634 31.5821 3.41014 28.8339 2.05706C26.0857 0.703991 23.0633 0.000208784 20 0ZM20 38.3974C16.6954 38.3996 13.4513 37.5107 10.6095 35.8241C10.5158 35.7684 10.4117 35.7323 10.3036 35.7183C10.1954 35.7043 10.0856 35.7125 9.98077 35.7425L3.34932 37.6371C3.21214 37.6763 3.06698 37.6781 2.92888 37.6423C2.79078 37.6065 2.66476 37.5344 2.56389 37.4335C2.46302 37.3326 2.39097 37.2066 2.3552 37.0685C2.31942 36.9304 2.32124 36.7853 2.36045 36.6481L4.25498 30.0173C4.28492 29.9125 4.29312 29.8026 4.27908 29.6945C4.26504 29.5864 4.22906 29.4823 4.17334 29.3886C2.10087 25.8973 1.24137 21.8185 1.72874 17.7878C2.21612 13.7571 4.023 10.0007 6.86791 7.1038C9.71282 4.20693 13.436 2.33224 17.4575 1.77176C21.479 1.21128 25.573 1.99649 29.1016 4.00506C32.6303 6.01364 35.3956 9.1328 36.9667 12.8766C38.5377 16.6205 38.8264 20.7788 37.7877 24.7038C36.749 28.6288 34.4412 32.1 31.2239 34.5768C28.0066 37.0537 24.0604 38.3969 20 38.3974ZM30.1023 23.707L26.0104 21.3689C25.6401 21.1576 25.2204 21.0486 24.7941 21.0531C24.3679 21.0577 23.9505 21.1755 23.5849 21.3946L20.8235 23.0514C19.1519 22.2045 17.794 20.8466 16.9471 19.1751L18.6038 16.4139C18.8229 16.0483 18.9408 15.631 18.9453 15.2048C18.9498 14.7786 18.8409 14.3589 18.6296 13.9887L16.2914 9.89697C16.1005 9.56386 15.8251 9.28699 15.493 9.09429C15.1609 8.90159 14.7839 8.79987 14.3999 8.7994C12.7068 8.79982 11.0828 9.47092 9.8833 10.6658C8.68384 11.8607 8.00664 13.4821 7.99991 15.1751C7.9968 17.3832 8.42905 19.5702 9.27192 21.611C10.1148 23.6519 11.3518 25.5066 12.9121 27.069C14.4724 28.6314 16.3254 29.871 18.3652 30.7167C20.405 31.5624 22.5915 31.9978 24.7997 31.9978H24.8237C26.5169 31.9911 28.1383 31.3139 29.3333 30.1146C30.5283 28.9152 31.1995 27.2913 31.1999 25.5983C31.1995 25.2143 31.0978 24.8373 30.905 24.5053C30.7123 24.1732 30.4354 23.8978 30.1023 23.707ZM24.8215 30.3979H24.7998C22.8019 30.3979 20.8236 30.0041 18.9781 29.2389C17.1325 28.4738 15.456 27.3523 14.0442 25.9387C12.6325 24.525 11.5133 22.847 10.7507 21.0005C9.98814 19.154 9.59708 17.1752 9.59991 15.1775C9.60543 13.9082 10.1136 12.6928 11.0132 11.7973C11.9128 10.9018 13.1305 10.3991 14.3999 10.3993C14.5019 10.3994 14.602 10.4264 14.6902 10.4776C14.7784 10.5287 14.8515 10.6022 14.9023 10.6907L17.2404 14.7826C17.3108 14.906 17.3471 15.0459 17.3456 15.1879C17.3441 15.33 17.3048 15.4691 17.2318 15.5909L15.354 18.7204C15.2876 18.831 15.249 18.9561 15.2414 19.0849C15.2338 19.2136 15.2574 19.3424 15.3104 19.46C16.3545 21.7838 18.2147 23.6439 20.5387 24.688C20.6564 24.7409 20.7851 24.7646 20.9139 24.757C21.0427 24.7494 21.1678 24.7107 21.2784 24.6442L24.4079 22.7666C24.5298 22.6936 24.6689 22.6543 24.811 22.6527C24.9531 22.6512 25.0931 22.6875 25.2165 22.7578L29.3086 25.0962C29.397 25.1468 29.4705 25.2199 29.5217 25.3081C29.5728 25.3963 29.5998 25.4963 29.5999 25.5983C29.6001 26.8675 29.0974 28.0852 28.2018 28.9847C27.3063 29.8842 26.0908 30.3924 24.8215 30.3979Z" fill="black"/>
</svg>
