<svg width="2534" height="1056" viewBox="0 0 2534 1056" fill="none" xmlns="http://www.w3.org/2000/svg">
<g clip-path="url(#clip0_2757_1806)">
<g opacity="0.1">
<mask id="mask0_2757_1806" style="mask-type:luminance" maskUnits="userSpaceOnUse" x="1694" y="-426" width="875" height="1061">
<path d="M1694.84 -425.09L2568.06 -425.034L2568.13 633.857L1694.91 633.801L1694.84 -425.09Z" fill="white" stroke="white"/>
</mask>
<g mask="url(#mask0_2757_1806)">
<path d="M2353.04 618.05L2301.54 588.256L2301.53 528.676L2353.03 499.039L2404.53 528.683L2404.53 588.264L2353.04 618.05Z" stroke="white" stroke-width="3" stroke-linecap="round" stroke-linejoin="round"/>
<path d="M2353.03 590.511L2325.33 574.491L2325.33 542.455L2353.02 526.44L2380.72 542.459L2380.72 574.495L2353.03 590.511Z" stroke="white" stroke-width="3" stroke-linecap="round" stroke-linejoin="round"/>
<path d="M2353.03 526.432L2353.03 499.035" stroke="white" stroke-width="3" stroke-linecap="round" stroke-linejoin="round"/>
<path d="M2380.71 542.456L2404.51 528.685" stroke="white" stroke-width="3" stroke-linecap="round" stroke-linejoin="round"/>
<path d="M2380.72 574.484L2404.52 588.258" stroke="white" stroke-width="3" stroke-linecap="round" stroke-linejoin="round"/>
<path d="M2353.03 590.504L2353.03 618.05" stroke="white" stroke-width="3" stroke-linecap="round" stroke-linejoin="round"/>
<path d="M2325.34 574.482L2301.54 588.252" stroke="white" stroke-width="3" stroke-linecap="round" stroke-linejoin="round"/>
<path d="M2325.34 542.449L2301.54 528.676" stroke="white" stroke-width="3" stroke-linecap="round" stroke-linejoin="round"/>
<path d="M2199.15 602.781L2155.14 634.514L2151.26 689.304L2249.01 718.203L2252.45 616.407L2199.15 602.781Z" stroke="white" stroke-width="3" stroke-linecap="round" stroke-linejoin="round"/>
<path d="M2151.26 689.308L2252.45 616.414" stroke="white" stroke-width="3" stroke-linecap="round" stroke-linejoin="round"/>
<path d="M2169.97 623.891L2179.25 669.25L2249.02 718.207" stroke="white" stroke-width="3" stroke-linecap="round" stroke-linejoin="round"/>
<path d="M2184.33 613.555L2224.45 636.462L2249.01 718.201" stroke="white" stroke-width="3" stroke-linecap="round" stroke-linejoin="round"/>
<path d="M2220.42 559.523C2220.42 559.523 2200.51 533.473 2213.38 492.006L2161.88 402.481C2161.88 402.481 2175.95 388.41 2212.17 403.383C2212.17 403.383 2185.53 428.082 2252.3 482.728C2252.3 482.728 2237.93 517.308 2220.42 559.523Z" stroke="white" stroke-width="3" stroke-linecap="round" stroke-linejoin="round"/>
<path d="M2212.18 403.379L2275.65 429.729" stroke="white" stroke-width="3" stroke-linecap="round" stroke-linejoin="round"/>
<path d="M2531.89 493.061C2513.77 512.222 2484.58 516.112 2462.13 502.338L2430.69 483.024C2425.6 480.03 2424.7 472.994 2428.74 468.653L2501.49 391.414C2505.53 387.222 2512.57 387.672 2515.86 392.612L2536.97 422.853C2552.09 444.561 2550 473.752 2531.89 493.061Z" stroke="white" stroke-width="3" stroke-linecap="round" stroke-linejoin="round"/>
<path d="M2444.18 452.194C2425.76 434.828 2420.22 410.875 2431.75 398.601C2443.27 386.476 2467.52 390.67 2485.94 408.036" stroke="white" stroke-width="3" stroke-linecap="round" stroke-linejoin="round"/>
<path d="M2442.67 490.367C2464.83 492.165 2487.43 484.083 2503.89 466.719C2520.36 449.206 2526.94 426.153 2523.95 404.147" stroke="white" stroke-width="3" stroke-linecap="round" stroke-linejoin="round"/>
<path d="M2488.94 443.809C2491.48 446.204 2491.63 450.246 2489.24 452.791C2486.7 455.336 2482.65 455.485 2480.11 453.09C2477.56 450.694 2477.41 446.652 2479.81 443.958C2482.2 441.413 2486.39 441.264 2488.94 443.809Z" stroke="white" stroke-width="3" stroke-linecap="round" stroke-linejoin="round"/>
<path d="M2502.28 671.366C2497.48 630.198 2532.21 620.47 2532.21 620.47C2532.21 620.47 2516.94 608.493 2499.88 614.03C2494.94 596.814 2476.37 590.975 2476.37 590.975C2476.37 590.975 2488.05 625.257 2451.38 644.416C2407.52 667.466 2393.9 713.274 2393.9 713.274L2435.82 735.432L2477.73 757.591C2477.73 757.591 2507.97 720.468 2502.28 671.366Z" stroke="white" stroke-width="3" stroke-linecap="round" stroke-linejoin="round"/>
<path d="M1915.96 618.027L1864.46 588.233L1864.46 528.652L1915.95 499.016L1967.45 528.66L1967.45 588.24L1915.96 618.027Z" stroke="white" stroke-width="3" stroke-linecap="round" stroke-linejoin="round"/>
<path d="M1915.95 590.488L1888.25 574.468L1888.25 542.432L1915.94 526.416L1943.64 542.436L1943.64 574.472L1915.95 590.488Z" stroke="white" stroke-width="3" stroke-linecap="round" stroke-linejoin="round"/>
<path d="M1915.95 526.408L1915.95 499.012" stroke="white" stroke-width="3" stroke-linecap="round" stroke-linejoin="round"/>
<path d="M1943.63 542.432L1967.43 528.662" stroke="white" stroke-width="3" stroke-linecap="round" stroke-linejoin="round"/>
<path d="M1943.64 574.461L1967.44 588.235" stroke="white" stroke-width="3" stroke-linecap="round" stroke-linejoin="round"/>
<path d="M1915.95 590.48L1915.95 618.027" stroke="white" stroke-width="3" stroke-linecap="round" stroke-linejoin="round"/>
<path d="M1888.26 574.459L1864.46 588.229" stroke="white" stroke-width="3" stroke-linecap="round" stroke-linejoin="round"/>
<path d="M1888.26 542.426L1864.46 528.652" stroke="white" stroke-width="3" stroke-linecap="round" stroke-linejoin="round"/>
<path d="M1762.1 602.761L1718.09 634.494L1714.2 689.284L1811.96 718.183L1815.39 616.388L1762.1 602.761Z" stroke="white" stroke-width="3" stroke-linecap="round" stroke-linejoin="round"/>
<path d="M1714.21 689.289L1815.4 616.394" stroke="white" stroke-width="3" stroke-linecap="round" stroke-linejoin="round"/>
<path d="M1732.91 623.871L1742.2 669.231L1811.96 718.188" stroke="white" stroke-width="3" stroke-linecap="round" stroke-linejoin="round"/>
<path d="M1747.27 613.535L1787.39 636.442L1811.95 718.181" stroke="white" stroke-width="3" stroke-linecap="round" stroke-linejoin="round"/>
<path d="M1783.35 559.499C1783.35 559.499 1763.44 533.449 1776.31 491.983L1724.81 402.457C1724.81 402.457 1738.88 388.386 1775.1 403.359C1775.1 403.359 1748.46 428.058 1815.23 482.704C1815.23 482.704 1800.86 517.284 1783.35 559.499Z" stroke="white" stroke-width="3" stroke-linecap="round" stroke-linejoin="round"/>
<path d="M1775.11 403.355L1838.58 429.706" stroke="white" stroke-width="3" stroke-linecap="round" stroke-linejoin="round"/>
<path d="M2094.83 493.03C2076.72 512.19 2047.53 516.08 2025.07 502.306L1993.64 482.993C1988.55 479.999 1987.65 472.963 1991.69 468.622L2064.44 391.382C2068.48 387.191 2075.51 387.641 2078.81 392.581L2099.92 422.822C2115.04 444.529 2112.94 473.72 2094.83 493.03Z" stroke="white" stroke-width="3" stroke-linecap="round" stroke-linejoin="round"/>
<path d="M2007.12 452.163C1988.71 434.796 1983.17 410.844 1994.69 398.57C2006.22 386.445 2030.47 390.638 2048.88 408.005" stroke="white" stroke-width="3" stroke-linecap="round" stroke-linejoin="round"/>
<path d="M2005.62 490.336C2027.77 492.134 2050.37 484.052 2066.84 466.688C2083.31 449.175 2089.89 426.121 2086.89 404.115" stroke="white" stroke-width="3" stroke-linecap="round" stroke-linejoin="round"/>
<path d="M2051.89 443.778C2054.43 446.173 2054.58 450.215 2052.19 452.76C2049.64 455.304 2045.6 455.454 2043.05 453.058C2040.51 450.663 2040.36 446.621 2042.75 443.927C2045.15 441.382 2049.34 441.233 2051.89 443.778Z" stroke="white" stroke-width="3" stroke-linecap="round" stroke-linejoin="round"/>
<path d="M2065.21 671.342C2060.41 630.174 2095.14 620.446 2095.14 620.446C2095.14 620.446 2079.87 608.469 2062.81 614.007C2057.87 596.791 2039.3 590.951 2039.3 590.951C2039.3 590.951 2050.98 625.234 2014.31 644.392C1970.45 667.443 1956.83 713.25 1956.83 713.25L1998.75 735.409L2040.66 757.568C2040.66 757.568 2070.9 720.444 2065.21 671.342Z" stroke="white" stroke-width="3" stroke-linecap="round" stroke-linejoin="round"/>
<path d="M2571.57 88.0855L2520.08 58.2914L2520.07 -1.28911L2571.57 -30.9259L2623.06 -1.28158L2623.07 58.299L2571.57 88.0855Z" stroke="white" stroke-width="3" stroke-linecap="round" stroke-linejoin="round"/>
<path d="M2543.88 44.5212L2520.08 58.2915" stroke="white" stroke-width="3" stroke-linecap="round" stroke-linejoin="round"/>
<path d="M2543.88 12.4846L2520.08 -1.28906" stroke="white" stroke-width="3" stroke-linecap="round" stroke-linejoin="round"/>
<path d="M2417.7 72.816L2373.69 104.549L2369.8 159.339L2467.56 188.238L2470.99 86.4426L2417.7 72.816Z" stroke="white" stroke-width="3" stroke-linecap="round" stroke-linejoin="round"/>
<path d="M2369.81 159.344L2471 86.4488" stroke="white" stroke-width="3" stroke-linecap="round" stroke-linejoin="round"/>
<path d="M2388.51 93.9258L2397.79 139.286L2467.56 188.243" stroke="white" stroke-width="3" stroke-linecap="round" stroke-linejoin="round"/>
<path d="M2402.88 83.5898L2443 106.497L2467.55 188.236" stroke="white" stroke-width="3" stroke-linecap="round" stroke-linejoin="round"/>
<path d="M2438.96 29.5538C2438.96 29.5538 2419.05 3.50424 2431.92 -37.9624L2380.41 -127.488C2380.41 -127.488 2394.49 -141.559 2430.71 -126.586C2430.71 -126.586 2404.07 -101.887 2470.84 -47.2412C2470.84 -47.2412 2456.47 -12.661 2438.96 29.5538Z" stroke="white" stroke-width="3" stroke-linecap="round" stroke-linejoin="round"/>
<path d="M2472.64 227.765C2472.64 227.765 2447.8 301.715 2425.49 305.605C2403.19 309.496 2382.53 286.74 2369.51 305.751L2416.21 337.64L2432.23 334.647L2425.79 344.078L2443.91 356.504C2443.91 356.504 2479.68 292.286 2516.65 261.151L2472.64 227.765Z" stroke="white" stroke-width="3" stroke-linecap="round" stroke-linejoin="round"/>
<path d="M2307.07 335.988C2301.39 353.353 2282.98 366.076 2261.87 359.039C2240.91 352.001 2221.9 326.851 2227.73 309.636C2232.37 295.714 2259.47 290.477 2275.79 292.574C2304.98 296.169 2313.36 317.277 2307.07 335.988Z" stroke="white" stroke-width="3" stroke-linecap="round" stroke-linejoin="round"/>
<path d="M2132.83 277.896C2127.15 295.26 2134.04 316.368 2155.14 323.405C2176.25 330.443 2206.49 321.613 2212.32 304.398C2216.81 290.476 2198.4 270.116 2184.03 261.882C2158.58 247.359 2139.12 259.034 2132.83 277.896Z" stroke="white" stroke-width="3" stroke-linecap="round" stroke-linejoin="round"/>
<path d="M2213.22 301.699C2213.22 301.699 2223.1 299.005 2228.94 306.939" stroke="white" stroke-width="3" stroke-linecap="round" stroke-linejoin="round"/>
<path d="M2199.3 274.004L2256.34 293.018" stroke="white" stroke-width="3" stroke-linecap="round" stroke-linejoin="round"/>
<path d="M2307.52 314.582L2317.55 318.026L2313.8 329.253L2309.76 327.906" stroke="white" stroke-width="3" stroke-linecap="round" stroke-linejoin="round"/>
<path d="M2145.42 260.529L2135.54 257.235L2131.8 268.462L2135.69 269.809" stroke="white" stroke-width="3" stroke-linecap="round" stroke-linejoin="round"/>
<path d="M2134.47 88.0581L2082.98 58.264L2082.97 -1.31647L2134.46 -30.9532L2185.96 -1.3089L2185.97 58.2716L2134.47 88.0581Z" stroke="white" stroke-width="3" stroke-linecap="round" stroke-linejoin="round"/>
<path d="M2134.46 60.5189L2106.77 44.4989L2106.77 12.4632L2134.46 -3.55265L2162.15 12.4673L2162.16 44.503L2134.46 60.5189Z" stroke="white" stroke-width="3" stroke-linecap="round" stroke-linejoin="round"/>
<path d="M2162.15 12.4633L2185.95 -1.30688" stroke="white" stroke-width="3" stroke-linecap="round" stroke-linejoin="round"/>
<path d="M2162.16 44.4922L2185.96 58.2658" stroke="white" stroke-width="3" stroke-linecap="round" stroke-linejoin="round"/>
<path d="M2134.47 60.5117L2134.47 88.0581" stroke="white" stroke-width="3" stroke-linecap="round" stroke-linejoin="round"/>
<path d="M2106.78 44.49L2082.98 58.2602" stroke="white" stroke-width="3" stroke-linecap="round" stroke-linejoin="round"/>
<path d="M2106.78 12.4572L2082.98 -1.31641" stroke="white" stroke-width="3" stroke-linecap="round" stroke-linejoin="round"/>
<path d="M1980.59 72.7926L1936.58 104.526L1932.69 159.315L2030.45 188.215L2033.88 86.4192L1980.59 72.7926Z" stroke="white" stroke-width="3" stroke-linecap="round" stroke-linejoin="round"/>
<path d="M1932.7 159.32L2033.89 86.4254" stroke="white" stroke-width="3" stroke-linecap="round" stroke-linejoin="round"/>
<path d="M1951.41 93.9023L1960.69 139.262L2030.45 188.219" stroke="white" stroke-width="3" stroke-linecap="round" stroke-linejoin="round"/>
<path d="M1965.77 83.5664L2005.89 106.474L2030.44 188.213" stroke="white" stroke-width="3" stroke-linecap="round" stroke-linejoin="round"/>
<path d="M2001.83 29.5264C2001.83 29.5264 1981.92 3.47685 1994.79 -37.9898L1943.29 -127.515C1943.29 -127.515 1957.36 -141.586 1993.59 -126.614C1993.59 -126.614 1966.94 -101.915 2033.71 -47.2685C2033.71 -47.2685 2019.35 -12.6883 2001.83 29.5264Z" stroke="white" stroke-width="3" stroke-linecap="round" stroke-linejoin="round"/>
<path d="M2035.52 227.749C2035.52 227.749 2010.68 301.699 1988.37 305.59C1966.07 309.48 1945.41 286.724 1932.39 305.735L1979.1 337.624L1995.11 334.632L1988.68 344.062L2006.79 356.488C2006.79 356.488 2042.56 292.27 2079.54 261.135L2035.52 227.749Z" stroke="white" stroke-width="3" stroke-linecap="round" stroke-linejoin="round"/>
<path d="M2283.7 141.385C2278.91 100.217 2313.64 90.4893 2313.64 90.4893C2313.64 90.4893 2298.37 78.5122 2281.3 84.0499C2276.36 66.834 2257.8 60.9943 2257.8 60.9943C2257.8 60.9943 2269.47 95.2765 2232.8 114.435C2188.94 137.486 2175.32 183.293 2175.32 183.293L2217.24 205.452L2259.16 227.611C2259.16 227.611 2289.39 190.487 2283.7 141.385Z" stroke="white" stroke-width="3" stroke-linecap="round" stroke-linejoin="round"/>
<path d="M2194.79 193.623L2213.2 158.743" stroke="white" stroke-width="3" stroke-linecap="round" stroke-linejoin="round"/>
<path d="M1869.99 335.973C1864.3 353.337 1845.89 366.06 1824.78 359.023C1803.82 351.986 1784.81 326.835 1790.65 309.62C1795.29 295.699 1822.38 290.461 1838.7 292.558C1867.89 296.153 1876.27 317.261 1869.99 335.973Z" stroke="white" stroke-width="3" stroke-linecap="round" stroke-linejoin="round"/>
<path d="M1695.75 277.88C1690.06 295.245 1696.95 316.353 1718.06 323.39C1739.16 330.427 1769.4 321.597 1775.24 304.382C1779.73 290.461 1761.31 270.1 1746.94 261.866C1721.49 247.343 1702.03 259.018 1695.75 277.88Z" stroke="white" stroke-width="3" stroke-linecap="round" stroke-linejoin="round"/>
<path d="M1776.13 301.683C1776.13 301.683 1786.01 298.989 1791.85 306.923" stroke="white" stroke-width="3" stroke-linecap="round" stroke-linejoin="round"/>
<path d="M1762.22 273.988L1819.25 293.003" stroke="white" stroke-width="3" stroke-linecap="round" stroke-linejoin="round"/>
<path d="M1870.43 314.566L1880.46 318.01L1876.72 329.238L1872.68 327.89" stroke="white" stroke-width="3" stroke-linecap="round" stroke-linejoin="round"/>
<path d="M1708.33 260.513L1698.45 257.219L1694.71 268.446L1698.6 269.794" stroke="white" stroke-width="3" stroke-linecap="round" stroke-linejoin="round"/>
<path d="M1697.4 88.0465L1645.9 58.2524L1645.89 -1.32816L1697.39 -30.965L1748.88 -1.32066L1748.89 58.2599L1697.4 88.0465Z" stroke="white" stroke-width="3" stroke-linecap="round" stroke-linejoin="round"/>
<path d="M1697.39 60.5072L1669.69 44.4873L1669.69 12.4515L1697.38 -3.56439L1725.08 12.4555L1725.08 44.4913L1697.39 60.5072Z" stroke="white" stroke-width="3" stroke-linecap="round" stroke-linejoin="round"/>
<path d="M1725.07 12.4516L1748.87 -1.31862" stroke="white" stroke-width="3" stroke-linecap="round" stroke-linejoin="round"/>
<path d="M1725.08 44.4805L1748.88 58.2541" stroke="white" stroke-width="3" stroke-linecap="round" stroke-linejoin="round"/>
<path d="M1697.39 60.5L1697.39 88.0463" stroke="white" stroke-width="3" stroke-linecap="round" stroke-linejoin="round"/>
<path d="M1846.63 141.362C1841.84 100.194 1876.56 90.4658 1876.56 90.4658C1876.56 90.4658 1861.29 78.4887 1844.23 84.0264C1839.29 66.8105 1820.73 60.9708 1820.73 60.9708C1820.73 60.9708 1832.4 95.253 1795.73 114.412C1751.87 137.463 1738.25 183.27 1738.25 183.27L1780.17 205.429L1822.08 227.587C1822.08 227.587 1852.32 190.464 1846.63 141.362Z" stroke="white" stroke-width="3" stroke-linecap="round" stroke-linejoin="round"/>
<path d="M1757.72 193.599L1776.13 158.72" stroke="white" stroke-width="3" stroke-linecap="round" stroke-linejoin="round"/>
</g>
<mask id="mask1_2757_1806" style="mask-type:luminance" maskUnits="userSpaceOnUse" x="1694" y="634" width="875" height="1061">
<path d="M1694.89 634.84L2568.11 634.895L2568.18 1693.79L1694.96 1693.73L1694.89 634.84Z" fill="white" stroke="white"/>
</mask>
<g mask="url(#mask1_2757_1806)">
<path d="M2571.6 1148L2520.1 1118.21L2520.1 1058.63L2571.59 1028.99L2623.09 1058.64L2623.09 1118.22L2571.6 1148Z" stroke="white" stroke-width="3" stroke-linecap="round" stroke-linejoin="round"/>
<path d="M2438.97 1089.47C2438.97 1089.47 2419.06 1063.42 2431.93 1021.96L2380.43 932.43C2380.43 932.43 2394.5 918.359 2430.73 933.332C2430.73 933.332 2404.08 958.031 2470.85 1012.68C2470.85 1012.68 2456.49 1047.26 2438.97 1089.47Z" stroke="white" stroke-width="3" stroke-linecap="round" stroke-linejoin="round"/>
<path d="M2430.73 933.328L2494.21 959.678" stroke="white" stroke-width="3" stroke-linecap="round" stroke-linejoin="round"/>
<path d="M2134.52 1147.99L2083.02 1118.2L2083.02 1058.62L2134.51 1028.98L2186.01 1058.62L2186.01 1118.21L2134.52 1147.99Z" stroke="white" stroke-width="3" stroke-linecap="round" stroke-linejoin="round"/>
<path d="M2134.51 1120.45L2106.82 1104.43L2106.81 1072.4L2134.51 1056.38L2162.2 1072.4L2162.2 1104.44L2134.51 1120.45Z" stroke="white" stroke-width="3" stroke-linecap="round" stroke-linejoin="round"/>
<path d="M2134.52 1056.37L2134.52 1028.98" stroke="white" stroke-width="3" stroke-linecap="round" stroke-linejoin="round"/>
<path d="M2001.89 1089.46C2001.89 1089.46 1981.98 1063.41 1994.85 1021.94L1943.34 932.414C1943.34 932.414 1957.42 918.343 1993.64 933.316C1993.64 933.316 1967 958.015 2033.77 1012.66C2033.77 1012.66 2019.4 1047.24 2001.89 1089.46Z" stroke="white" stroke-width="3" stroke-linecap="round" stroke-linejoin="round"/>
<path d="M1993.65 933.312L2057.12 959.663" stroke="white" stroke-width="3" stroke-linecap="round" stroke-linejoin="round"/>
<path d="M2313.36 1022.99C2295.25 1042.15 2266.06 1046.04 2243.6 1032.27L2212.17 1012.95C2207.08 1009.96 2206.18 1002.92 2210.22 998.583L2282.97 921.343C2287.01 917.152 2294.04 917.602 2297.34 922.542L2318.45 952.783C2333.57 974.49 2331.47 1003.68 2313.36 1022.99Z" stroke="white" stroke-width="3" stroke-linecap="round" stroke-linejoin="round"/>
<path d="M2225.65 982.124C2207.24 964.757 2201.7 940.805 2213.22 928.531C2224.75 916.406 2249 920.599 2267.41 937.966" stroke="white" stroke-width="3" stroke-linecap="round" stroke-linejoin="round"/>
<path d="M2224.15 1020.3C2246.3 1022.1 2268.91 1014.01 2285.37 996.649C2301.84 979.135 2308.42 956.082 2305.43 934.076" stroke="white" stroke-width="3" stroke-linecap="round" stroke-linejoin="round"/>
<path d="M2270.42 973.735C2272.96 976.13 2273.11 980.172 2270.72 982.717C2268.17 985.261 2264.13 985.411 2261.59 983.015C2259.04 980.62 2258.89 976.578 2261.28 973.884C2263.68 971.339 2267.87 971.19 2270.42 973.735Z" stroke="white" stroke-width="3" stroke-linecap="round" stroke-linejoin="round"/>
<path d="M1697.44 1147.96L1645.94 1118.17L1645.94 1058.59L1697.43 1028.95L1748.93 1058.6L1748.94 1118.18L1697.44 1147.96Z" stroke="white" stroke-width="3" stroke-linecap="round" stroke-linejoin="round"/>
<path d="M1697.43 1120.43L1669.74 1104.41L1669.74 1072.37L1697.43 1056.35L1725.12 1072.37L1725.13 1104.41L1697.43 1120.43Z" stroke="white" stroke-width="3" stroke-linecap="round" stroke-linejoin="round"/>
<path d="M1697.44 1056.35L1697.44 1028.95" stroke="white" stroke-width="3" stroke-linecap="round" stroke-linejoin="round"/>
<path d="M1876.28 1022.97C1858.17 1042.13 1828.98 1046.02 1806.53 1032.24L1775.09 1012.93C1770 1009.94 1769.1 1002.9 1773.14 998.559L1845.89 921.32C1849.93 917.129 1856.97 917.578 1860.26 922.518L1881.37 952.759C1896.49 974.467 1894.4 1003.66 1876.28 1022.97Z" stroke="white" stroke-width="3" stroke-linecap="round" stroke-linejoin="round"/>
<path d="M1788.57 982.1C1770.16 964.734 1764.62 940.782 1776.14 928.507C1787.67 916.382 1811.92 920.576 1830.34 937.942" stroke="white" stroke-width="3" stroke-linecap="round" stroke-linejoin="round"/>
<path d="M1787.07 1020.27C1809.22 1022.07 1831.83 1013.99 1848.29 996.626C1864.76 979.112 1871.34 956.059 1868.35 934.053" stroke="white" stroke-width="3" stroke-linecap="round" stroke-linejoin="round"/>
<path d="M1833.34 973.715C1835.88 976.111 1836.03 980.152 1833.64 982.697C1831.09 985.242 1827.05 985.391 1824.51 982.996C1821.96 980.601 1821.81 976.559 1824.21 973.864C1826.6 971.319 1830.79 971.17 1833.34 973.715Z" stroke="white" stroke-width="3" stroke-linecap="round" stroke-linejoin="round"/>
<path d="M2525.64 865.973C2519.95 883.337 2501.54 896.06 2480.43 889.023C2459.47 881.986 2440.46 856.835 2446.3 839.62C2450.94 825.699 2478.03 820.461 2494.35 822.558C2523.54 826.153 2531.92 847.261 2525.64 865.973Z" stroke="white" stroke-width="3" stroke-linecap="round" stroke-linejoin="round"/>
<path d="M2351.4 807.88C2345.71 825.245 2352.6 846.352 2373.71 853.39C2394.81 860.427 2425.05 851.597 2430.89 834.382C2435.38 820.461 2416.96 800.1 2402.59 791.866C2377.14 777.343 2357.68 789.019 2351.4 807.88Z" stroke="white" stroke-width="3" stroke-linecap="round" stroke-linejoin="round"/>
<path d="M2431.78 831.683C2431.78 831.683 2441.66 828.989 2447.5 836.923" stroke="white" stroke-width="3" stroke-linecap="round" stroke-linejoin="round"/>
<path d="M2417.87 803.988L2474.9 823.003" stroke="white" stroke-width="3" stroke-linecap="round" stroke-linejoin="round"/>
<path d="M2526.08 844.566L2536.11 848.01L2532.37 859.238L2528.32 857.89" stroke="white" stroke-width="3" stroke-linecap="round" stroke-linejoin="round"/>
<path d="M2363.98 790.513L2354.1 787.219L2350.36 798.446L2354.25 799.794" stroke="white" stroke-width="3" stroke-linecap="round" stroke-linejoin="round"/>
<path d="M2199.17 602.769L2155.16 634.502L2151.27 689.292L2249.03 718.191L2252.46 616.396L2199.17 602.769Z" stroke="white" stroke-width="3" stroke-linecap="round" stroke-linejoin="round"/>
<path d="M2151.28 689.297L2252.47 616.402" stroke="white" stroke-width="3" stroke-linecap="round" stroke-linejoin="round"/>
<path d="M2169.98 623.879L2179.27 669.239L2249.03 718.196" stroke="white" stroke-width="3" stroke-linecap="round" stroke-linejoin="round"/>
<path d="M2184.34 613.543L2224.46 636.45L2249.02 718.189" stroke="white" stroke-width="3" stroke-linecap="round" stroke-linejoin="round"/>
<path d="M2254.09 757.718C2254.09 757.718 2229.24 831.668 2206.94 835.558C2184.63 839.449 2163.97 816.693 2150.95 835.704L2197.66 867.593L2213.67 864.6L2207.24 874.031L2225.35 886.457C2225.35 886.457 2261.13 822.239 2298.1 791.104L2254.09 757.718Z" stroke="white" stroke-width="3" stroke-linecap="round" stroke-linejoin="round"/>
<path d="M2502.28 671.35C2497.48 630.182 2532.21 620.454 2532.21 620.454C2532.21 620.454 2516.94 608.477 2499.88 614.015C2494.94 596.799 2476.37 590.959 2476.37 590.959C2476.37 590.959 2488.05 625.241 2451.38 644.4C2407.52 667.451 2393.9 713.258 2393.9 713.258L2435.82 735.417L2477.73 757.575C2477.73 757.575 2507.97 720.452 2502.28 671.35Z" stroke="white" stroke-width="3" stroke-linecap="round" stroke-linejoin="round"/>
<path d="M2413.37 723.588L2431.78 688.708" stroke="white" stroke-width="3" stroke-linecap="round" stroke-linejoin="round"/>
<path d="M2088.57 865.949C2082.89 883.314 2064.48 896.037 2043.37 889C2022.41 881.962 2003.4 856.812 2009.23 839.597C2013.87 825.675 2040.97 820.438 2057.29 822.535C2086.48 826.13 2094.86 847.238 2088.57 865.949Z" stroke="white" stroke-width="3" stroke-linecap="round" stroke-linejoin="round"/>
<path d="M1914.33 807.857C1908.65 825.221 1915.54 846.329 1936.64 853.366C1957.75 860.404 1987.99 851.574 1993.82 834.359C1998.31 820.437 1979.9 800.077 1965.53 791.843C1940.08 777.32 1920.62 788.995 1914.33 807.857Z" stroke="white" stroke-width="3" stroke-linecap="round" stroke-linejoin="round"/>
<path d="M1994.72 831.66C1994.72 831.66 2004.6 828.966 2010.44 836.9" stroke="white" stroke-width="3" stroke-linecap="round" stroke-linejoin="round"/>
<path d="M1980.8 803.965L2037.84 822.979" stroke="white" stroke-width="3" stroke-linecap="round" stroke-linejoin="round"/>
<path d="M2089.02 844.543L2099.05 847.987L2095.3 859.214L2091.26 857.866" stroke="white" stroke-width="3" stroke-linecap="round" stroke-linejoin="round"/>
<path d="M1926.92 790.49L1917.04 787.196L1913.3 798.423L1917.19 799.77" stroke="white" stroke-width="3" stroke-linecap="round" stroke-linejoin="round"/>
<path d="M1762.11 602.757L1718.1 634.491L1714.21 689.28L1811.96 718.18L1815.4 616.384L1762.11 602.757Z" stroke="white" stroke-width="3" stroke-linecap="round" stroke-linejoin="round"/>
<path d="M1714.22 689.285L1815.4 616.39" stroke="white" stroke-width="3" stroke-linecap="round" stroke-linejoin="round"/>
<path d="M1732.92 623.867L1742.21 669.227L1811.97 718.184" stroke="white" stroke-width="3" stroke-linecap="round" stroke-linejoin="round"/>
<path d="M1747.28 613.531L1787.4 636.438L1811.96 718.177" stroke="white" stroke-width="3" stroke-linecap="round" stroke-linejoin="round"/>
<path d="M1817.02 757.699C1817.02 757.699 1792.18 831.648 1769.87 835.539C1747.57 839.429 1726.91 816.674 1713.89 835.685L1760.6 867.574L1776.61 864.581L1770.18 874.011L1788.29 886.438C1788.29 886.438 1824.06 822.219 1861.04 791.085L1817.02 757.699Z" stroke="white" stroke-width="3" stroke-linecap="round" stroke-linejoin="round"/>
<path d="M2065.2 671.33C2060.41 630.163 2095.14 620.435 2095.14 620.435C2095.14 620.435 2079.87 608.458 2062.8 613.995C2057.86 596.779 2039.3 590.94 2039.3 590.94C2039.3 590.94 2050.97 625.222 2014.3 644.381C1970.44 667.431 1956.82 713.239 1956.82 713.239L1998.74 735.397L2040.66 757.556C2040.66 757.556 2070.89 720.433 2065.2 671.33Z" stroke="white" stroke-width="3" stroke-linecap="round" stroke-linejoin="round"/>
<path d="M1976.29 723.568L1994.7 688.689" stroke="white" stroke-width="3" stroke-linecap="round" stroke-linejoin="round"/>
</g>
<path d="M1478.86 618.007L1427.37 588.213L1427.36 528.633L1478.86 498.996L1530.35 528.64L1530.36 588.221L1478.86 618.007Z" stroke="white" stroke-width="3" stroke-linecap="round" stroke-linejoin="round"/>
<path d="M1478.85 590.468L1451.16 574.448L1451.16 542.412L1478.85 526.397L1506.55 542.417L1506.55 574.452L1478.85 590.468Z" stroke="white" stroke-width="3" stroke-linecap="round" stroke-linejoin="round"/>
<path d="M1478.86 526.389L1478.86 498.992" stroke="white" stroke-width="3" stroke-linecap="round" stroke-linejoin="round"/>
<path d="M1506.54 542.413L1530.34 528.642" stroke="white" stroke-width="3" stroke-linecap="round" stroke-linejoin="round"/>
<path d="M1506.55 574.441L1530.35 588.215" stroke="white" stroke-width="3" stroke-linecap="round" stroke-linejoin="round"/>
<path d="M1478.86 590.461L1478.86 618.007" stroke="white" stroke-width="3" stroke-linecap="round" stroke-linejoin="round"/>
<path d="M1451.17 574.439L1427.37 588.209" stroke="white" stroke-width="3" stroke-linecap="round" stroke-linejoin="round"/>
<path d="M1451.17 542.406L1427.37 528.633" stroke="white" stroke-width="3" stroke-linecap="round" stroke-linejoin="round"/>
<path d="M1324.97 602.754L1280.96 634.487L1277.08 689.276L1374.83 718.176L1378.27 616.38L1324.97 602.754Z" stroke="white" stroke-width="3" stroke-linecap="round" stroke-linejoin="round"/>
<path d="M1277.08 689.281L1378.27 616.386" stroke="white" stroke-width="3" stroke-linecap="round" stroke-linejoin="round"/>
<path d="M1295.79 623.863L1305.07 669.223L1374.84 718.18" stroke="white" stroke-width="3" stroke-linecap="round" stroke-linejoin="round"/>
<path d="M1310.15 613.527L1350.27 636.435L1374.83 718.173" stroke="white" stroke-width="3" stroke-linecap="round" stroke-linejoin="round"/>
<path d="M1346.26 559.483C1346.26 559.483 1326.34 533.434 1339.21 491.967L1287.71 402.442C1287.71 402.442 1301.78 388.371 1338.01 403.343C1338.01 403.343 1311.37 428.042 1378.14 482.689C1378.14 482.689 1363.77 517.269 1346.26 559.483Z" stroke="white" stroke-width="3" stroke-linecap="round" stroke-linejoin="round"/>
<path d="M1338.02 403.34L1401.49 429.69" stroke="white" stroke-width="3" stroke-linecap="round" stroke-linejoin="round"/>
<path d="M1657.72 493.018C1639.61 512.179 1610.42 516.069 1587.96 502.295L1556.53 482.981C1551.44 479.987 1550.54 472.951 1554.58 468.61L1627.33 391.371C1631.37 387.179 1638.4 387.629 1641.7 392.569L1662.81 422.81C1677.93 444.518 1675.83 473.709 1657.72 493.018Z" stroke="white" stroke-width="3" stroke-linecap="round" stroke-linejoin="round"/>
<path d="M1570.01 452.151C1551.6 434.785 1546.06 410.832 1557.58 398.558C1569.11 386.433 1593.36 390.627 1611.77 407.993" stroke="white" stroke-width="3" stroke-linecap="round" stroke-linejoin="round"/>
<path d="M1568.51 490.324C1590.66 492.122 1613.27 484.04 1629.73 466.676C1646.2 449.163 1652.78 426.11 1649.79 404.104" stroke="white" stroke-width="3" stroke-linecap="round" stroke-linejoin="round"/>
<path d="M1614.78 443.766C1617.32 446.161 1617.47 450.203 1615.08 452.748C1612.53 455.293 1608.49 455.442 1605.94 453.047C1603.4 450.651 1603.25 446.609 1605.64 443.915C1608.04 441.37 1612.23 441.221 1614.78 443.766Z" stroke="white" stroke-width="3" stroke-linecap="round" stroke-linejoin="round"/>
<path d="M1628.09 671.33C1623.3 630.163 1658.03 620.435 1658.03 620.435C1658.03 620.435 1642.76 608.458 1625.69 613.995C1620.75 596.779 1602.19 590.94 1602.19 590.94C1602.19 590.94 1613.87 625.222 1577.19 644.381C1533.33 667.431 1519.71 713.239 1519.71 713.239L1561.63 735.397L1603.55 757.556C1603.55 757.556 1633.78 720.433 1628.09 671.33Z" stroke="white" stroke-width="3" stroke-linecap="round" stroke-linejoin="round"/>
<path d="M1041.78 617.999L990.28 588.205L990.276 528.625L1041.77 498.988L1093.27 528.632L1093.27 588.213L1041.78 617.999Z" stroke="white" stroke-width="3" stroke-linecap="round" stroke-linejoin="round"/>
<path d="M1041.77 590.46L1014.07 574.44L1014.07 542.405L1041.76 526.389L1069.46 542.409L1069.46 574.444L1041.77 590.46Z" stroke="white" stroke-width="3" stroke-linecap="round" stroke-linejoin="round"/>
<path d="M1041.77 526.381L1041.77 498.984" stroke="white" stroke-width="3" stroke-linecap="round" stroke-linejoin="round"/>
<path d="M1069.45 542.405L1093.25 528.635" stroke="white" stroke-width="3" stroke-linecap="round" stroke-linejoin="round"/>
<path d="M1069.46 574.434L1093.26 588.207" stroke="white" stroke-width="3" stroke-linecap="round" stroke-linejoin="round"/>
<path d="M1041.77 590.453L1041.77 617.999" stroke="white" stroke-width="3" stroke-linecap="round" stroke-linejoin="round"/>
<path d="M1014.08 574.431L990.282 588.202" stroke="white" stroke-width="3" stroke-linecap="round" stroke-linejoin="round"/>
<path d="M1014.08 542.399L990.281 528.625" stroke="white" stroke-width="3" stroke-linecap="round" stroke-linejoin="round"/>
<path d="M887.895 602.738L843.887 634.471L839.999 689.261L937.753 718.16L941.189 616.365L887.895 602.738Z" stroke="white" stroke-width="3" stroke-linecap="round" stroke-linejoin="round"/>
<path d="M840.005 689.265L941.193 616.371" stroke="white" stroke-width="3" stroke-linecap="round" stroke-linejoin="round"/>
<path d="M858.711 623.848L867.996 669.207L937.758 718.164" stroke="white" stroke-width="3" stroke-linecap="round" stroke-linejoin="round"/>
<path d="M873.07 613.512L913.192 636.419L937.748 718.158" stroke="white" stroke-width="3" stroke-linecap="round" stroke-linejoin="round"/>
<path d="M909.146 559.476C909.146 559.476 889.234 533.426 902.106 491.959L850.602 402.434C850.602 402.434 864.673 388.363 900.902 403.336C900.902 403.336 874.257 428.035 941.027 482.681C941.027 482.681 926.658 517.261 909.146 559.476Z" stroke="white" stroke-width="3" stroke-linecap="round" stroke-linejoin="round"/>
<path d="M900.906 403.332L964.377 429.682" stroke="white" stroke-width="3" stroke-linecap="round" stroke-linejoin="round"/>
<path d="M1220.63 493.015C1202.52 512.175 1173.33 516.065 1150.87 502.291L1119.43 482.977C1114.34 479.983 1113.44 472.947 1117.49 468.606L1190.23 391.367C1194.27 387.175 1201.31 387.625 1204.6 392.565L1225.71 422.806C1240.83 444.514 1238.74 473.705 1220.63 493.015Z" stroke="white" stroke-width="3" stroke-linecap="round" stroke-linejoin="round"/>
<path d="M1132.92 452.147C1114.5 434.781 1108.96 410.829 1120.49 398.554C1132.01 386.429 1156.27 390.623 1174.68 407.989" stroke="white" stroke-width="3" stroke-linecap="round" stroke-linejoin="round"/>
<path d="M1131.41 490.32C1153.57 492.118 1176.17 484.036 1192.64 466.673C1209.1 449.159 1215.69 426.106 1212.69 404.1" stroke="white" stroke-width="3" stroke-linecap="round" stroke-linejoin="round"/>
<path d="M1177.68 443.762C1180.23 446.157 1180.38 450.199 1177.98 452.744C1175.44 455.289 1171.4 455.438 1168.85 453.043C1166.31 450.647 1166.16 446.605 1168.55 443.911C1170.95 441.366 1175.14 441.217 1177.68 443.762Z" stroke="white" stroke-width="3" stroke-linecap="round" stroke-linejoin="round"/>
<path d="M1191.02 671.327C1186.23 630.159 1220.96 620.431 1220.96 620.431C1220.96 620.431 1205.69 608.454 1188.62 613.991C1183.68 596.775 1165.12 590.936 1165.12 590.936C1165.12 590.936 1176.8 625.218 1140.12 644.377C1096.26 667.427 1082.64 713.235 1082.64 713.235L1124.56 735.393L1166.48 757.552C1166.48 757.552 1196.71 720.429 1191.02 671.327Z" stroke="white" stroke-width="3" stroke-linecap="round" stroke-linejoin="round"/>
<path d="M1695.75 277.88C1690.06 295.245 1696.95 316.352 1718.06 323.39C1739.16 330.427 1769.4 321.597 1775.24 304.382C1779.73 290.461 1761.31 270.1 1746.94 261.866C1721.49 247.343 1702.03 259.018 1695.75 277.88Z" stroke="white" stroke-width="3" stroke-linecap="round" stroke-linejoin="round"/>
<path d="M1708.33 260.513L1698.45 257.219L1694.71 268.446L1698.6 269.794" stroke="white" stroke-width="3" stroke-linecap="round" stroke-linejoin="round"/>
<path d="M1697.39 88.0542L1645.89 58.2602L1645.88 -1.32036L1697.38 -30.9572L1748.88 -1.31283L1748.88 58.2677L1697.39 88.0542Z" stroke="white" stroke-width="3" stroke-linecap="round" stroke-linejoin="round"/>
<path d="M1697.39 60.5111L1669.69 44.4912L1669.69 12.4554L1697.38 -3.56047L1725.08 12.4594L1725.08 44.4952L1697.39 60.5111Z" stroke="white" stroke-width="3" stroke-linecap="round" stroke-linejoin="round"/>
<path d="M1669.69 44.49L1645.89 58.2602" stroke="white" stroke-width="3" stroke-linecap="round" stroke-linejoin="round"/>
<path d="M1669.69 12.4533L1645.89 -1.32031" stroke="white" stroke-width="3" stroke-linecap="round" stroke-linejoin="round"/>
<path d="M1543.5 72.7769L1499.49 104.51L1495.6 159.3L1593.35 188.199L1596.79 86.4035L1543.5 72.7769Z" stroke="white" stroke-width="3" stroke-linecap="round" stroke-linejoin="round"/>
<path d="M1495.61 159.305L1596.79 86.4097" stroke="white" stroke-width="3" stroke-linecap="round" stroke-linejoin="round"/>
<path d="M1514.3 93.8867L1523.59 139.247L1593.35 188.204" stroke="white" stroke-width="3" stroke-linecap="round" stroke-linejoin="round"/>
<path d="M1528.67 83.5508L1568.79 106.458L1593.35 188.197" stroke="white" stroke-width="3" stroke-linecap="round" stroke-linejoin="round"/>
<path d="M1564.75 29.5148C1564.75 29.5148 1544.84 3.46518 1557.71 -38.0014L1506.2 -127.527C1506.2 -127.527 1520.27 -141.598 1556.5 -126.625C1556.5 -126.625 1529.86 -101.926 1596.63 -47.2802C1596.63 -47.2802 1582.26 -12.7 1564.75 29.5148Z" stroke="white" stroke-width="3" stroke-linecap="round" stroke-linejoin="round"/>
<path d="M1598.45 227.734C1598.45 227.734 1573.61 301.683 1551.3 305.574C1529 309.465 1508.34 286.709 1495.32 305.72L1542.02 337.609L1558.04 334.616L1551.61 344.047L1569.72 356.473C1569.72 356.473 1605.49 292.254 1642.46 261.12L1598.45 227.734Z" stroke="white" stroke-width="3" stroke-linecap="round" stroke-linejoin="round"/>
<path d="M1432.91 335.961C1427.22 353.326 1408.81 366.049 1387.7 359.011C1366.75 351.974 1347.73 326.823 1353.57 309.609C1358.21 295.687 1385.3 290.45 1401.62 292.546C1430.81 296.141 1439.2 317.249 1432.91 335.961Z" stroke="white" stroke-width="3" stroke-linecap="round" stroke-linejoin="round"/>
<path d="M1258.67 277.868C1252.98 295.233 1259.87 316.341 1280.98 323.378C1302.09 330.415 1332.32 321.585 1338.16 304.371C1342.65 290.449 1324.24 270.089 1309.87 261.854C1284.42 247.332 1264.96 259.007 1258.67 277.868Z" stroke="white" stroke-width="3" stroke-linecap="round" stroke-linejoin="round"/>
<path d="M1339.05 301.671C1339.05 301.671 1348.93 298.978 1354.77 306.912" stroke="white" stroke-width="3" stroke-linecap="round" stroke-linejoin="round"/>
<path d="M1325.14 273.977L1382.17 292.991" stroke="white" stroke-width="3" stroke-linecap="round" stroke-linejoin="round"/>
<path d="M1433.35 314.555L1443.38 317.999L1439.64 329.226L1435.6 327.878" stroke="white" stroke-width="3" stroke-linecap="round" stroke-linejoin="round"/>
<path d="M1271.26 260.501L1261.38 257.207L1257.63 268.434L1261.53 269.782" stroke="white" stroke-width="3" stroke-linecap="round" stroke-linejoin="round"/>
<path d="M1260.3 88.0385L1208.8 58.2445L1208.8 -1.33601L1260.29 -30.9728L1311.79 -1.32843L1311.8 58.2521L1260.3 88.0385Z" stroke="white" stroke-width="3" stroke-linecap="round" stroke-linejoin="round"/>
<path d="M1260.29 60.4993L1232.6 44.4794L1232.59 12.4437L1260.29 -3.57218L1287.98 12.4477L1287.99 44.4835L1260.29 60.4993Z" stroke="white" stroke-width="3" stroke-linecap="round" stroke-linejoin="round"/>
<path d="M1287.98 12.4438L1311.78 -1.32641" stroke="white" stroke-width="3" stroke-linecap="round" stroke-linejoin="round"/>
<path d="M1287.98 44.4727L1311.79 58.2463" stroke="white" stroke-width="3" stroke-linecap="round" stroke-linejoin="round"/>
<path d="M1260.3 60.4922L1260.3 88.0385" stroke="white" stroke-width="3" stroke-linecap="round" stroke-linejoin="round"/>
<path d="M1232.61 44.4705L1208.81 58.2407" stroke="white" stroke-width="3" stroke-linecap="round" stroke-linejoin="round"/>
<path d="M1232.61 12.4377L1208.8 -1.33594" stroke="white" stroke-width="3" stroke-linecap="round" stroke-linejoin="round"/>
<path d="M1106.44 72.7613L1062.43 104.494L1058.55 159.284L1156.3 188.183L1159.74 86.3879L1106.44 72.7613Z" stroke="white" stroke-width="3" stroke-linecap="round" stroke-linejoin="round"/>
<path d="M1058.55 159.289L1159.74 86.3941" stroke="white" stroke-width="3" stroke-linecap="round" stroke-linejoin="round"/>
<path d="M1077.26 93.8711L1086.54 139.231L1156.31 188.188" stroke="white" stroke-width="3" stroke-linecap="round" stroke-linejoin="round"/>
<path d="M1091.62 83.5352L1131.74 106.442L1156.3 188.181" stroke="white" stroke-width="3" stroke-linecap="round" stroke-linejoin="round"/>
<path d="M1127.66 29.503C1127.66 29.503 1107.75 3.45341 1120.62 -38.0132L1069.12 -127.539C1069.12 -127.539 1083.19 -141.61 1119.42 -126.637C1119.42 -126.637 1092.77 -101.938 1159.54 -47.292C1159.54 -47.292 1145.17 -12.7118 1127.66 29.503Z" stroke="white" stroke-width="3" stroke-linecap="round" stroke-linejoin="round"/>
<path d="M1161.36 227.718C1161.36 227.718 1136.51 301.668 1114.21 305.558C1091.91 309.449 1071.25 286.693 1058.22 305.704L1104.93 337.593L1120.95 334.6L1114.51 344.031L1132.63 356.457C1132.63 356.457 1168.4 292.239 1205.37 261.104L1161.36 227.718Z" stroke="white" stroke-width="3" stroke-linecap="round" stroke-linejoin="round"/>
<path d="M1409.54 141.35C1404.74 100.182 1439.47 90.4542 1439.47 90.4542C1439.47 90.4542 1424.2 78.4771 1407.14 84.0147C1402.19 66.7988 1383.63 60.9592 1383.63 60.9592C1383.63 60.9592 1395.31 95.2413 1358.64 114.4C1314.78 137.451 1301.16 183.258 1301.16 183.258L1343.07 205.417L1384.99 227.575C1384.99 227.575 1415.23 190.452 1409.54 141.35Z" stroke="white" stroke-width="3" stroke-linecap="round" stroke-linejoin="round"/>
<path d="M1320.63 193.588L1339.04 158.708" stroke="white" stroke-width="3" stroke-linecap="round" stroke-linejoin="round"/>
<path d="M995.809 335.953C990.122 353.318 971.71 366.041 950.603 359.004C929.645 351.966 910.632 326.816 916.469 309.601C921.108 295.679 948.203 290.442 964.52 292.539C993.711 296.133 1002.09 317.241 995.809 335.953Z" stroke="white" stroke-width="3" stroke-linecap="round" stroke-linejoin="round"/>
<path d="M821.569 277.86C815.882 295.225 822.77 316.333 843.877 323.37C864.985 330.408 895.222 321.578 901.059 304.363C905.549 290.441 887.135 270.081 872.764 261.846C847.315 247.324 827.855 258.999 821.569 277.86Z" stroke="white" stroke-width="3" stroke-linecap="round" stroke-linejoin="round"/>
<path d="M901.953 301.664C901.953 301.664 911.833 298.97 917.671 306.904" stroke="white" stroke-width="3" stroke-linecap="round" stroke-linejoin="round"/>
<path d="M888.039 273.969L945.073 292.983" stroke="white" stroke-width="3" stroke-linecap="round" stroke-linejoin="round"/>
<path d="M996.25 314.547L1006.28 317.991L1002.54 329.218L998.496 327.87" stroke="white" stroke-width="3" stroke-linecap="round" stroke-linejoin="round"/>
<path d="M834.154 260.494L824.274 257.199L820.532 268.427L824.424 269.774" stroke="white" stroke-width="3" stroke-linecap="round" stroke-linejoin="round"/>
<path d="M823.208 88.023L771.71 58.229L771.705 -1.3516L823.199 -30.9884L874.697 -1.34409L874.701 58.2365L823.208 88.023Z" stroke="white" stroke-width="3" stroke-linecap="round" stroke-linejoin="round"/>
<path d="M823.199 60.4838L795.504 44.4638L795.501 12.4281L823.194 -3.58783L850.889 12.4321L850.891 44.4679L823.199 60.4838Z" stroke="white" stroke-width="3" stroke-linecap="round" stroke-linejoin="round"/>
<path d="M850.884 12.4282L874.684 -1.34205" stroke="white" stroke-width="3" stroke-linecap="round" stroke-linejoin="round"/>
<path d="M850.891 44.457L874.693 58.2307" stroke="white" stroke-width="3" stroke-linecap="round" stroke-linejoin="round"/>
<path d="M823.203 60.4766L823.204 88.0229" stroke="white" stroke-width="3" stroke-linecap="round" stroke-linejoin="round"/>
<path d="M972.449 141.338C967.656 100.17 1002.39 90.4424 1002.39 90.4424C1002.39 90.4424 987.115 78.4653 970.05 84.0029C965.109 66.7871 946.546 60.9474 946.546 60.9474C946.546 60.9474 958.225 95.2296 921.55 114.389C877.691 137.439 864.071 183.246 864.071 183.246L905.988 205.405L947.905 227.564C947.905 227.564 978.141 190.44 972.449 141.338Z" stroke="white" stroke-width="3" stroke-linecap="round" stroke-linejoin="round"/>
<path d="M883.542 193.576L901.952 158.697" stroke="white" stroke-width="3" stroke-linecap="round" stroke-linejoin="round"/>
<path d="M1697.42 1147.98L1645.92 1118.19L1645.92 1058.61L1697.41 1028.97L1748.91 1058.62L1748.91 1118.2L1697.42 1147.98Z" stroke="white" stroke-width="3" stroke-linecap="round" stroke-linejoin="round"/>
<path d="M1697.42 1120.44L1669.72 1104.42L1669.72 1072.39L1697.41 1056.37L1725.11 1072.39L1725.11 1104.42L1697.42 1120.44Z" stroke="white" stroke-width="3" stroke-linecap="round" stroke-linejoin="round"/>
<path d="M1564.79 1089.44C1564.79 1089.44 1544.88 1063.39 1557.75 1021.93L1506.25 932.403C1506.25 932.403 1520.32 918.332 1556.55 933.304C1556.55 933.304 1529.91 958.003 1596.68 1012.65C1596.68 1012.65 1582.31 1047.23 1564.79 1089.44Z" stroke="white" stroke-width="3" stroke-linecap="round" stroke-linejoin="round"/>
<path d="M1556.55 933.301L1620.03 959.651" stroke="white" stroke-width="3" stroke-linecap="round" stroke-linejoin="round"/>
<path d="M1260.33 1147.96L1208.83 1118.17L1208.83 1058.59L1260.32 1028.95L1311.82 1058.6L1311.83 1118.18L1260.33 1147.96Z" stroke="white" stroke-width="3" stroke-linecap="round" stroke-linejoin="round"/>
<path d="M1260.32 1120.43L1232.63 1104.41L1232.63 1072.37L1260.32 1056.35L1288.01 1072.37L1288.02 1104.41L1260.32 1120.43Z" stroke="white" stroke-width="3" stroke-linecap="round" stroke-linejoin="round"/>
<path d="M1260.33 1056.35L1260.33 1028.95" stroke="white" stroke-width="3" stroke-linecap="round" stroke-linejoin="round"/>
<path d="M1127.71 1089.43C1127.71 1089.43 1107.8 1063.38 1120.67 1021.91L1069.16 932.387C1069.16 932.387 1083.24 918.316 1119.46 933.289C1119.46 933.289 1092.82 957.988 1159.59 1012.63C1159.59 1012.63 1145.22 1047.21 1127.71 1089.43Z" stroke="white" stroke-width="3" stroke-linecap="round" stroke-linejoin="round"/>
<path d="M1119.47 933.285L1182.94 959.635" stroke="white" stroke-width="3" stroke-linecap="round" stroke-linejoin="round"/>
<path d="M1439.2 1022.96C1421.09 1042.12 1391.9 1046.01 1369.44 1032.24L1338 1012.93C1332.91 1009.93 1332.01 1002.9 1336.06 998.555L1408.8 921.316C1412.84 917.125 1419.88 917.574 1423.17 922.515L1444.28 952.755C1459.4 974.463 1457.31 1003.65 1439.2 1022.96Z" stroke="white" stroke-width="3" stroke-linecap="round" stroke-linejoin="round"/>
<path d="M1351.49 982.096C1333.07 964.73 1327.53 940.778 1339.06 928.503C1350.58 916.379 1374.84 920.572 1393.25 937.938" stroke="white" stroke-width="3" stroke-linecap="round" stroke-linejoin="round"/>
<path d="M1349.98 1020.27C1372.14 1022.07 1394.74 1013.99 1411.21 996.622C1427.67 979.108 1434.26 956.055 1431.26 934.049" stroke="white" stroke-width="3" stroke-linecap="round" stroke-linejoin="round"/>
<path d="M1396.25 973.711C1398.8 976.107 1398.95 980.149 1396.55 982.693C1394.01 985.238 1389.97 985.387 1387.42 982.992C1384.88 980.597 1384.73 976.555 1387.12 973.86C1389.52 971.316 1393.71 971.166 1396.25 973.711Z" stroke="white" stroke-width="3" stroke-linecap="round" stroke-linejoin="round"/>
<path d="M823.239 1147.95L771.741 1118.15L771.737 1058.57L823.23 1028.94L874.728 1058.58L874.733 1118.16L823.239 1147.95Z" stroke="white" stroke-width="3" stroke-linecap="round" stroke-linejoin="round"/>
<path d="M823.23 1120.41L795.535 1104.39L795.532 1072.35L823.225 1056.34L850.92 1072.36L850.923 1104.39L823.23 1120.41Z" stroke="white" stroke-width="3" stroke-linecap="round" stroke-linejoin="round"/>
<path d="M823.235 1056.33L823.234 1028.93" stroke="white" stroke-width="3" stroke-linecap="round" stroke-linejoin="round"/>
<path d="M1002.09 1022.95C983.977 1042.11 954.786 1046 932.331 1032.23L900.893 1012.91C895.803 1009.92 894.905 1002.88 898.946 998.544L971.693 921.304C975.734 917.113 982.77 917.563 986.064 922.503L1007.17 952.744C1022.29 974.451 1020.2 1003.64 1002.09 1022.95Z" stroke="white" stroke-width="3" stroke-linecap="round" stroke-linejoin="round"/>
<path d="M914.378 982.085C895.964 964.718 890.424 940.766 901.95 928.492C913.475 916.367 937.726 920.56 956.14 937.927" stroke="white" stroke-width="3" stroke-linecap="round" stroke-linejoin="round"/>
<path d="M912.873 1020.26C935.029 1022.06 957.632 1013.97 974.098 996.61C990.563 979.096 997.148 956.043 994.152 934.037" stroke="white" stroke-width="3" stroke-linecap="round" stroke-linejoin="round"/>
<path d="M959.143 973.696C961.688 976.091 961.838 980.133 959.443 982.678C956.898 985.222 952.857 985.372 950.311 982.976C947.766 980.581 947.617 976.539 950.011 973.845C952.406 971.3 956.598 971.151 959.143 973.696Z" stroke="white" stroke-width="3" stroke-linecap="round" stroke-linejoin="round"/>
<path d="M1651.43 865.945C1645.75 883.31 1627.34 896.033 1606.23 888.996C1585.27 881.958 1566.26 856.808 1572.09 839.593C1576.73 825.671 1603.83 820.434 1620.14 822.531C1649.34 826.126 1657.72 847.234 1651.43 865.945Z" stroke="white" stroke-width="3" stroke-linecap="round" stroke-linejoin="round"/>
<path d="M1477.19 807.853C1471.51 825.217 1478.39 846.325 1499.5 853.362C1520.61 860.4 1550.85 851.57 1556.68 834.355C1561.17 820.433 1542.76 800.073 1528.39 791.839C1502.94 777.316 1483.48 788.991 1477.19 807.853Z" stroke="white" stroke-width="3" stroke-linecap="round" stroke-linejoin="round"/>
<path d="M1557.58 831.656C1557.58 831.656 1567.46 828.962 1573.3 836.896" stroke="white" stroke-width="3" stroke-linecap="round" stroke-linejoin="round"/>
<path d="M1543.66 803.961L1600.7 822.975" stroke="white" stroke-width="3" stroke-linecap="round" stroke-linejoin="round"/>
<path d="M1651.88 844.539L1661.91 847.983L1658.16 859.21L1654.12 857.863" stroke="white" stroke-width="3" stroke-linecap="round" stroke-linejoin="round"/>
<path d="M1489.78 790.486L1479.9 787.192L1476.16 798.419L1480.05 799.766" stroke="white" stroke-width="3" stroke-linecap="round" stroke-linejoin="round"/>
<path d="M1324.95 602.746L1280.94 634.479L1277.05 689.269L1374.81 718.168L1378.24 616.372L1324.95 602.746Z" stroke="white" stroke-width="3" stroke-linecap="round" stroke-linejoin="round"/>
<path d="M1277.06 689.273L1378.25 616.378" stroke="white" stroke-width="3" stroke-linecap="round" stroke-linejoin="round"/>
<path d="M1295.77 623.855L1305.05 669.215L1374.81 718.172" stroke="white" stroke-width="3" stroke-linecap="round" stroke-linejoin="round"/>
<path d="M1310.12 613.52L1350.25 636.427L1374.8 718.166" stroke="white" stroke-width="3" stroke-linecap="round" stroke-linejoin="round"/>
<path d="M1379.89 757.695C1379.89 757.695 1355.05 831.644 1332.74 835.535C1310.44 839.425 1289.78 816.67 1276.76 835.681L1323.46 867.57L1339.48 864.577L1333.04 874.007L1351.16 886.434C1351.16 886.434 1386.93 822.215 1423.9 791.081L1379.89 757.695Z" stroke="white" stroke-width="3" stroke-linecap="round" stroke-linejoin="round"/>
<path d="M1628.08 671.327C1623.29 630.159 1658.02 620.431 1658.02 620.431C1658.02 620.431 1642.75 608.454 1625.68 613.991C1620.74 596.775 1602.18 590.936 1602.18 590.936C1602.18 590.936 1613.86 625.218 1577.18 644.377C1533.32 667.427 1519.7 713.235 1519.7 713.235L1561.62 735.393L1603.54 757.552C1603.54 757.552 1633.77 720.429 1628.08 671.327Z" stroke="white" stroke-width="3" stroke-linecap="round" stroke-linejoin="round"/>
<path d="M1539.17 723.564L1557.59 688.685" stroke="white" stroke-width="3" stroke-linecap="round" stroke-linejoin="round"/>
<path d="M1214.39 865.918C1208.7 883.283 1190.29 896.006 1169.18 888.968C1148.22 881.931 1129.21 856.78 1135.05 839.566C1139.69 825.644 1166.78 820.407 1183.1 822.503C1212.29 826.098 1220.67 847.206 1214.39 865.918Z" stroke="white" stroke-width="3" stroke-linecap="round" stroke-linejoin="round"/>
<path d="M1040.15 807.825C1034.46 825.19 1041.35 846.298 1062.46 853.335C1083.56 860.372 1113.8 851.542 1119.64 834.328C1124.13 820.406 1105.71 800.046 1091.34 791.811C1065.89 777.289 1046.43 788.964 1040.15 807.825Z" stroke="white" stroke-width="3" stroke-linecap="round" stroke-linejoin="round"/>
<path d="M1120.53 831.628C1120.53 831.628 1130.41 828.935 1136.25 836.869" stroke="white" stroke-width="3" stroke-linecap="round" stroke-linejoin="round"/>
<path d="M1106.62 803.934L1163.65 822.948" stroke="white" stroke-width="3" stroke-linecap="round" stroke-linejoin="round"/>
<path d="M1214.83 844.512L1224.86 847.956L1221.12 859.183L1217.07 857.835" stroke="white" stroke-width="3" stroke-linecap="round" stroke-linejoin="round"/>
<path d="M1052.73 790.458L1042.85 787.164L1039.11 798.391L1043 799.739" stroke="white" stroke-width="3" stroke-linecap="round" stroke-linejoin="round"/>
<path d="M887.895 602.714L843.887 634.448L839.999 689.237L937.753 718.137L941.189 616.341L887.895 602.714Z" stroke="white" stroke-width="3" stroke-linecap="round" stroke-linejoin="round"/>
<path d="M840.005 689.242L941.193 616.347" stroke="white" stroke-width="3" stroke-linecap="round" stroke-linejoin="round"/>
<path d="M858.711 623.824L867.995 669.184L937.758 718.141" stroke="white" stroke-width="3" stroke-linecap="round" stroke-linejoin="round"/>
<path d="M873.07 613.488L913.192 636.396L937.748 718.134" stroke="white" stroke-width="3" stroke-linecap="round" stroke-linejoin="round"/>
<path d="M942.827 757.671C942.827 757.671 917.983 831.621 895.679 835.511C873.375 839.402 852.715 816.646 839.693 835.657L886.4 867.546L902.417 864.553L895.981 873.984L914.095 886.41C914.095 886.41 949.867 822.192 986.84 791.057L942.827 757.671Z" stroke="white" stroke-width="3" stroke-linecap="round" stroke-linejoin="round"/>
<path d="M1191 671.299C1186.21 630.131 1220.94 620.403 1220.94 620.403C1220.94 620.403 1205.67 608.426 1188.6 613.964C1183.66 596.748 1165.1 590.908 1165.1 590.908C1165.1 590.908 1176.78 625.191 1140.11 644.349C1096.25 667.4 1082.63 713.207 1082.63 713.207L1124.54 735.366L1166.46 757.525C1166.46 757.525 1196.7 720.401 1191 671.299Z" stroke="white" stroke-width="3" stroke-linecap="round" stroke-linejoin="round"/>
<path d="M1102.1 723.537L1120.51 688.658" stroke="white" stroke-width="3" stroke-linecap="round" stroke-linejoin="round"/>
<mask id="mask2_2757_1806" style="mask-type:luminance" maskUnits="userSpaceOnUse" x="-54" y="-426" width="875" height="1061">
<path d="M-53.5 -425.144L819.719 -425.089L819.786 633.802L-53.4328 633.747L-53.5 -425.144Z" fill="white" stroke="white"/>
</mask>
<g mask="url(#mask2_2757_1806)">
<path d="M604.708 617.976L553.21 588.182L553.205 528.601L604.699 498.965L656.197 528.609L656.202 588.19L604.708 617.976Z" stroke="white" stroke-width="3" stroke-linecap="round" stroke-linejoin="round"/>
<path d="M604.699 590.437L577.004 574.417L577.001 542.381L604.694 526.365L632.389 542.385L632.392 574.421L604.699 590.437Z" stroke="white" stroke-width="3" stroke-linecap="round" stroke-linejoin="round"/>
<path d="M604.704 526.358L604.703 498.961" stroke="white" stroke-width="3" stroke-linecap="round" stroke-linejoin="round"/>
<path d="M632.384 542.381L656.184 528.611" stroke="white" stroke-width="3" stroke-linecap="round" stroke-linejoin="round"/>
<path d="M632.391 574.41L656.193 588.184" stroke="white" stroke-width="3" stroke-linecap="round" stroke-linejoin="round"/>
<path d="M604.703 590.43L604.704 617.976" stroke="white" stroke-width="3" stroke-linecap="round" stroke-linejoin="round"/>
<path d="M577.012 574.408L553.212 588.178" stroke="white" stroke-width="3" stroke-linecap="round" stroke-linejoin="round"/>
<path d="M577.013 542.375L553.211 528.602" stroke="white" stroke-width="3" stroke-linecap="round" stroke-linejoin="round"/>
<path d="M450.841 602.711L406.832 634.444L402.944 689.233L500.698 718.133L504.134 616.337L450.841 602.711Z" stroke="white" stroke-width="3" stroke-linecap="round" stroke-linejoin="round"/>
<path d="M402.951 689.238L504.139 616.343" stroke="white" stroke-width="3" stroke-linecap="round" stroke-linejoin="round"/>
<path d="M421.656 623.82L430.941 669.18L500.704 718.137" stroke="white" stroke-width="3" stroke-linecap="round" stroke-linejoin="round"/>
<path d="M436.016 613.484L476.137 636.392L500.694 718.13" stroke="white" stroke-width="3" stroke-linecap="round" stroke-linejoin="round"/>
<path d="M472.099 559.44C472.099 559.44 452.187 533.391 465.059 491.924L413.555 402.399C413.555 402.399 427.626 388.328 463.855 403.3C463.855 403.3 437.21 427.999 503.98 482.646C503.98 482.646 489.611 517.226 472.099 559.44Z" stroke="white" stroke-width="3" stroke-linecap="round" stroke-linejoin="round"/>
<path d="M463.859 403.297L527.331 429.647" stroke="white" stroke-width="3" stroke-linecap="round" stroke-linejoin="round"/>
<path d="M783.589 492.983C765.477 512.143 736.286 516.033 713.831 502.259L682.393 482.946C677.303 479.952 676.405 472.916 680.446 468.575L753.193 391.336C757.234 387.144 764.27 387.594 767.564 392.534L788.673 422.775C803.794 444.482 801.701 473.674 783.589 492.983Z" stroke="white" stroke-width="3" stroke-linecap="round" stroke-linejoin="round"/>
<path d="M695.878 452.116C677.464 434.75 671.924 410.797 683.45 398.523C694.975 386.398 719.226 390.591 737.64 407.958" stroke="white" stroke-width="3" stroke-linecap="round" stroke-linejoin="round"/>
<path d="M694.374 490.289C716.529 492.087 739.132 484.005 755.598 466.641C772.063 449.128 778.648 426.074 775.653 404.068" stroke="white" stroke-width="3" stroke-linecap="round" stroke-linejoin="round"/>
<path d="M740.643 443.731C743.188 446.126 743.338 450.168 740.943 452.713C738.398 455.257 734.357 455.407 731.812 453.011C729.267 450.616 729.117 446.574 731.511 443.88C733.906 441.335 738.098 441.186 740.643 443.731Z" stroke="white" stroke-width="3" stroke-linecap="round" stroke-linejoin="round"/>
<path d="M753.95 671.288C749.156 630.12 783.885 620.392 783.885 620.392C783.885 620.392 768.615 608.415 751.55 613.952C746.609 596.736 728.046 590.897 728.046 590.897C728.046 590.897 739.725 625.179 703.05 644.338C659.191 667.388 645.571 713.196 645.571 713.196L687.488 735.354L729.405 757.513C729.405 757.513 759.642 720.39 753.95 671.288Z" stroke="white" stroke-width="3" stroke-linecap="round" stroke-linejoin="round"/>
<path d="M167.614 617.968L116.116 588.174L116.112 528.594L167.605 498.957L219.103 528.601L219.108 588.182L167.614 617.968Z" stroke="white" stroke-width="3" stroke-linecap="round" stroke-linejoin="round"/>
<path d="M167.605 590.429L139.91 574.409L139.907 542.373L167.6 526.358L195.295 542.377L195.298 574.413L167.605 590.429Z" stroke="white" stroke-width="3" stroke-linecap="round" stroke-linejoin="round"/>
<path d="M167.61 526.35L167.609 498.953" stroke="white" stroke-width="3" stroke-linecap="round" stroke-linejoin="round"/>
<path d="M195.29 542.373L219.09 528.603" stroke="white" stroke-width="3" stroke-linecap="round" stroke-linejoin="round"/>
<path d="M195.297 574.402L219.099 588.176" stroke="white" stroke-width="3" stroke-linecap="round" stroke-linejoin="round"/>
<path d="M167.609 590.422L167.61 617.968" stroke="white" stroke-width="3" stroke-linecap="round" stroke-linejoin="round"/>
<path d="M139.918 574.4L116.118 588.17" stroke="white" stroke-width="3" stroke-linecap="round" stroke-linejoin="round"/>
<path d="M139.919 542.367L116.117 528.594" stroke="white" stroke-width="3" stroke-linecap="round" stroke-linejoin="round"/>
<path d="M13.7547 602.707L-30.254 634.44L-34.1421 689.23L63.6124 718.129L67.048 616.333L13.7547 602.707Z" stroke="white" stroke-width="3" stroke-linecap="round" stroke-linejoin="round"/>
<path d="M-34.1353 689.234L67.0528 616.339" stroke="white" stroke-width="3" stroke-linecap="round" stroke-linejoin="round"/>
<path d="M-15.4297 623.816L-6.14512 669.176L63.6176 718.133" stroke="white" stroke-width="3" stroke-linecap="round" stroke-linejoin="round"/>
<path d="M-1.07031 613.48L39.051 636.388L63.6077 718.127" stroke="white" stroke-width="3" stroke-linecap="round" stroke-linejoin="round"/>
<path d="M35.0212 559.437C35.0212 559.437 15.1092 533.387 27.9805 491.92L-23.523 402.395C-23.523 402.395 -9.45212 388.324 26.7766 403.297C26.7766 403.297 0.131575 427.996 66.9021 482.642C66.9021 482.642 52.5332 517.222 35.0212 559.437Z" stroke="white" stroke-width="3" stroke-linecap="round" stroke-linejoin="round"/>
<path d="M26.7812 403.293L90.2524 429.643" stroke="white" stroke-width="3" stroke-linecap="round" stroke-linejoin="round"/>
<path d="M346.479 492.979C328.368 512.14 299.177 516.03 276.722 502.256L245.284 482.942C240.194 479.948 239.295 472.912 243.337 468.571L316.084 391.332C320.125 387.14 327.161 387.59 330.455 392.53L351.564 422.771C366.685 444.478 364.591 473.67 346.479 492.979Z" stroke="white" stroke-width="3" stroke-linecap="round" stroke-linejoin="round"/>
<path d="M258.769 452.112C240.355 434.746 234.814 410.793 246.34 398.519C257.866 386.394 282.117 390.588 300.531 407.954" stroke="white" stroke-width="3" stroke-linecap="round" stroke-linejoin="round"/>
<path d="M257.264 490.285C279.419 492.083 302.023 484.001 318.488 466.637C334.954 449.124 341.539 426.071 338.543 404.065" stroke="white" stroke-width="3" stroke-linecap="round" stroke-linejoin="round"/>
<path d="M303.534 443.727C306.079 446.122 306.229 450.164 303.834 452.709C301.289 455.254 297.247 455.403 294.702 453.008C292.157 450.612 292.007 446.57 294.402 443.876C296.797 441.331 300.989 441.182 303.534 443.727Z" stroke="white" stroke-width="3" stroke-linecap="round" stroke-linejoin="round"/>
<path d="M316.856 671.284C312.062 630.116 346.792 620.388 346.792 620.388C346.792 620.388 331.522 608.411 314.456 613.948C309.515 596.732 290.952 590.893 290.952 590.893C290.952 590.893 302.631 625.175 265.957 644.334C222.097 667.384 208.478 713.192 208.478 713.192L250.395 735.35L292.312 757.509C292.312 757.509 322.548 720.386 316.856 671.284Z" stroke="white" stroke-width="3" stroke-linecap="round" stroke-linejoin="round"/>
<path d="M821.569 277.849C815.882 295.213 822.77 316.321 843.877 323.359C864.985 330.396 895.223 321.566 901.059 304.351C905.549 290.429 887.135 270.069 872.764 261.835C847.315 247.312 827.855 258.987 821.569 277.849Z" stroke="white" stroke-width="3" stroke-linecap="round" stroke-linejoin="round"/>
<path d="M834.154 260.482L824.274 257.188L820.532 268.415L824.424 269.762" stroke="white" stroke-width="3" stroke-linecap="round" stroke-linejoin="round"/>
<path d="M823.216 88.0152L771.717 58.2211L771.713 -1.35942L823.207 -30.9962L874.705 -1.35189L874.709 58.2287L823.216 88.0152Z" stroke="white" stroke-width="3" stroke-linecap="round" stroke-linejoin="round"/>
<path d="M823.214 60.472L795.519 44.4521L795.517 12.4163L823.21 -3.59954L850.905 12.4204L850.907 44.4561L823.214 60.472Z" stroke="white" stroke-width="3" stroke-linecap="round" stroke-linejoin="round"/>
<path d="M795.52 44.4509L771.72 58.2211" stroke="white" stroke-width="3" stroke-linecap="round" stroke-linejoin="round"/>
<path d="M795.521 12.4142L771.719 -1.35938" stroke="white" stroke-width="3" stroke-linecap="round" stroke-linejoin="round"/>
<path d="M669.325 72.7457L625.316 104.479L621.428 159.269L719.183 188.168L722.618 86.3723L669.325 72.7457Z" stroke="white" stroke-width="3" stroke-linecap="round" stroke-linejoin="round"/>
<path d="M621.435 159.273L722.623 86.3784" stroke="white" stroke-width="3" stroke-linecap="round" stroke-linejoin="round"/>
<path d="M640.133 93.8555L649.417 139.215L719.18 188.172" stroke="white" stroke-width="3" stroke-linecap="round" stroke-linejoin="round"/>
<path d="M654.5 83.5195L694.621 106.427L719.178 188.166" stroke="white" stroke-width="3" stroke-linecap="round" stroke-linejoin="round"/>
<path d="M690.584 29.4835C690.584 29.4835 670.672 3.43393 683.543 -38.0327L632.039 -127.558C632.039 -127.558 646.11 -141.629 682.339 -126.657C682.339 -126.657 655.694 -101.958 722.464 -47.3115C722.464 -47.3115 708.096 -12.7313 690.584 29.4835Z" stroke="white" stroke-width="3" stroke-linecap="round" stroke-linejoin="round"/>
<path d="M724.28 227.699C724.28 227.699 699.436 301.648 677.132 305.539C654.828 309.429 634.168 286.674 621.146 305.685L667.853 337.574L683.87 334.581L677.434 344.011L695.548 356.438C695.548 356.438 731.32 292.219 768.293 261.084L724.28 227.699Z" stroke="white" stroke-width="3" stroke-linecap="round" stroke-linejoin="round"/>
<path d="M558.731 335.926C553.044 353.29 534.632 366.013 513.525 358.976C492.567 351.939 473.554 326.788 479.391 309.573C484.03 295.652 511.125 290.414 527.442 292.511C556.632 296.106 565.017 317.214 558.731 335.926Z" stroke="white" stroke-width="3" stroke-linecap="round" stroke-linejoin="round"/>
<path d="M384.491 277.833C378.804 295.198 385.691 316.306 406.799 323.343C427.907 330.38 458.144 321.55 463.981 304.335C468.471 290.414 450.057 270.054 435.686 261.819C410.236 247.297 390.777 258.972 384.491 277.833Z" stroke="white" stroke-width="3" stroke-linecap="round" stroke-linejoin="round"/>
<path d="M464.875 301.636C464.875 301.636 474.754 298.942 480.593 306.876" stroke="white" stroke-width="3" stroke-linecap="round" stroke-linejoin="round"/>
<path d="M450.961 273.941L507.994 292.956" stroke="white" stroke-width="3" stroke-linecap="round" stroke-linejoin="round"/>
<path d="M559.172 314.52L569.202 317.963L565.46 329.191L561.418 327.843" stroke="white" stroke-width="3" stroke-linecap="round" stroke-linejoin="round"/>
<path d="M397.076 260.466L387.196 257.172L383.454 268.399L387.346 269.747" stroke="white" stroke-width="3" stroke-linecap="round" stroke-linejoin="round"/>
<path d="M386.13 88.0034L334.632 58.2093L334.627 -1.37116L386.121 -31.0079L437.619 -1.36359L437.623 58.2169L386.13 88.0034Z" stroke="white" stroke-width="3" stroke-linecap="round" stroke-linejoin="round"/>
<path d="M386.121 60.4642L358.425 44.4443L358.423 12.4085L386.116 -3.60734L413.811 12.4126L413.813 44.4483L386.121 60.4642Z" stroke="white" stroke-width="3" stroke-linecap="round" stroke-linejoin="round"/>
<path d="M413.806 12.4086L437.606 -1.36157" stroke="white" stroke-width="3" stroke-linecap="round" stroke-linejoin="round"/>
<path d="M413.812 44.4375L437.615 58.2111" stroke="white" stroke-width="3" stroke-linecap="round" stroke-linejoin="round"/>
<path d="M386.125 60.457L386.126 88.0034" stroke="white" stroke-width="3" stroke-linecap="round" stroke-linejoin="round"/>
<path d="M358.434 44.4353L334.634 58.2055" stroke="white" stroke-width="3" stroke-linecap="round" stroke-linejoin="round"/>
<path d="M358.435 12.4025L334.633 -1.37109" stroke="white" stroke-width="3" stroke-linecap="round" stroke-linejoin="round"/>
<path d="M232.263 72.734L188.254 104.467L184.366 159.257L282.12 188.156L285.556 86.3606L232.263 72.734Z" stroke="white" stroke-width="3" stroke-linecap="round" stroke-linejoin="round"/>
<path d="M184.373 159.262L285.561 86.3668" stroke="white" stroke-width="3" stroke-linecap="round" stroke-linejoin="round"/>
<path d="M203.078 93.8438L212.363 139.204L282.125 188.161" stroke="white" stroke-width="3" stroke-linecap="round" stroke-linejoin="round"/>
<path d="M217.438 83.5078L257.559 106.415L282.115 188.154" stroke="white" stroke-width="3" stroke-linecap="round" stroke-linejoin="round"/>
<path d="M253.498 29.4679C253.498 29.4679 233.586 3.41825 246.457 -38.0484L194.954 -127.574C194.954 -127.574 209.024 -141.645 245.253 -126.672C245.253 -126.672 218.608 -101.973 285.379 -47.3271C285.379 -47.3271 271.01 -12.7469 253.498 29.4679Z" stroke="white" stroke-width="3" stroke-linecap="round" stroke-linejoin="round"/>
<path d="M287.194 227.687C287.194 227.687 262.35 301.636 240.046 305.527C217.742 309.418 197.082 286.662 184.06 305.673L230.767 337.562L246.784 334.569L240.348 344L258.462 356.426C258.462 356.426 294.235 292.208 331.207 261.073L287.194 227.687Z" stroke="white" stroke-width="3" stroke-linecap="round" stroke-linejoin="round"/>
<path d="M535.379 141.311C530.586 100.143 565.315 90.4151 565.315 90.4151C565.315 90.4151 550.045 78.438 532.98 83.9757C528.039 66.7598 509.476 60.9201 509.476 60.9201C509.476 60.9201 521.155 95.2023 484.48 114.361C440.62 137.412 427.001 183.219 427.001 183.219L468.918 205.378L510.835 227.536C510.835 227.536 541.071 190.413 535.379 141.311Z" stroke="white" stroke-width="3" stroke-linecap="round" stroke-linejoin="round"/>
<path d="M446.471 193.549L464.882 158.669" stroke="white" stroke-width="3" stroke-linecap="round" stroke-linejoin="round"/>
<path d="M121.653 335.906C115.966 353.271 97.5542 365.994 76.4467 358.957C55.4889 351.919 36.4758 326.769 42.3127 309.554C46.9522 295.632 74.0466 290.395 90.3635 292.492C119.554 296.087 127.939 317.195 121.653 335.906Z" stroke="white" stroke-width="3" stroke-linecap="round" stroke-linejoin="round"/>
<path d="M-52.587 277.814C-58.2742 295.178 -51.3867 316.286 -30.2792 323.323C-9.17167 330.361 21.0661 321.531 26.903 304.316C31.3928 290.394 12.9789 270.034 -1.39243 261.8C-26.8416 247.277 -46.3012 258.952 -52.587 277.814Z" stroke="white" stroke-width="3" stroke-linecap="round" stroke-linejoin="round"/>
<path d="M27.7969 301.617C27.7969 301.617 37.6763 298.923 43.5148 306.857" stroke="white" stroke-width="3" stroke-linecap="round" stroke-linejoin="round"/>
<path d="M13.8828 273.922L70.9163 292.936" stroke="white" stroke-width="3" stroke-linecap="round" stroke-linejoin="round"/>
<path d="M122.094 314.5L132.124 317.944L128.382 329.171L124.34 327.824" stroke="white" stroke-width="3" stroke-linecap="round" stroke-linejoin="round"/>
<path d="M-50.9408 87.984L-102.439 58.1899L-102.443 -1.39066L-50.9495 -31.0275L0.548541 -1.38316L0.552882 58.1974L-50.9408 87.984Z" stroke="white" stroke-width="3" stroke-linecap="round" stroke-linejoin="round"/>
<path d="M-23.2646 12.3891L0.535585 -1.38112" stroke="white" stroke-width="3" stroke-linecap="round" stroke-linejoin="round"/>
<path d="M-23.2578 44.418L0.544379 58.1916" stroke="white" stroke-width="3" stroke-linecap="round" stroke-linejoin="round"/>
<path d="M98.3009 141.303C93.5076 100.135 128.237 90.4073 128.237 90.4073C128.237 90.4073 112.967 78.4301 95.9016 83.9678C90.9603 66.7519 72.3974 60.9123 72.3974 60.9123C72.3974 60.9123 84.0763 95.1944 47.4018 114.353C3.54212 137.404 -10.077 183.211 -10.077 183.211L31.8399 205.37L73.7568 227.529C73.7568 227.529 103.993 190.405 98.3009 141.303Z" stroke="white" stroke-width="3" stroke-linecap="round" stroke-linejoin="round"/>
<path d="M9.39309 193.541L27.8039 158.661" stroke="white" stroke-width="3" stroke-linecap="round" stroke-linejoin="round"/>
</g>
<mask id="mask3_2757_1806" style="mask-type:luminance" maskUnits="userSpaceOnUse" x="-54" y="634" width="875" height="1061">
<path d="M-53.4843 634.781L819.735 634.837L819.802 1693.73L-53.4171 1693.67L-53.4843 634.781Z" fill="white" stroke="white"/>
</mask>
<g mask="url(#mask3_2757_1806)">
<path d="M823.247 1147.94L771.749 1118.15L771.744 1058.57L823.238 1028.93L874.736 1058.58L874.74 1118.16L823.247 1147.94Z" stroke="white" stroke-width="3" stroke-linecap="round" stroke-linejoin="round"/>
<path d="M823.246 1120.4L795.55 1104.38L795.548 1072.35L823.241 1056.33L850.936 1072.35L850.938 1104.39L823.246 1120.4Z" stroke="white" stroke-width="3" stroke-linecap="round" stroke-linejoin="round"/>
<path d="M690.63 1089.41C690.63 1089.41 670.718 1063.36 683.59 1021.89L632.086 932.367C632.086 932.367 646.157 918.296 682.386 933.269C682.386 933.269 655.741 957.968 722.511 1012.61C722.511 1012.61 708.142 1047.19 690.63 1089.41Z" stroke="white" stroke-width="3" stroke-linecap="round" stroke-linejoin="round"/>
<path d="M682.391 933.266L745.862 959.616" stroke="white" stroke-width="3" stroke-linecap="round" stroke-linejoin="round"/>
<path d="M386.169 1147.93L334.671 1118.13L334.666 1058.55L386.16 1028.91L437.658 1058.56L437.662 1118.14L386.169 1147.93Z" stroke="white" stroke-width="3" stroke-linecap="round" stroke-linejoin="round"/>
<path d="M386.16 1120.39L358.464 1104.37L358.462 1072.33L386.155 1056.31L413.85 1072.33L413.853 1104.37L386.16 1120.39Z" stroke="white" stroke-width="3" stroke-linecap="round" stroke-linejoin="round"/>
<path d="M386.165 1056.31L386.164 1028.91" stroke="white" stroke-width="3" stroke-linecap="round" stroke-linejoin="round"/>
<path d="M253.513 1089.39C253.513 1089.39 233.601 1063.34 246.473 1021.87L194.969 932.348C194.969 932.348 209.04 918.277 245.269 933.25C245.269 933.25 218.624 957.949 285.394 1012.59C285.394 1012.59 271.025 1047.17 253.513 1089.39Z" stroke="white" stroke-width="3" stroke-linecap="round" stroke-linejoin="round"/>
<path d="M245.273 933.246L308.745 959.596" stroke="white" stroke-width="3" stroke-linecap="round" stroke-linejoin="round"/>
<path d="M565.019 1022.93C546.907 1042.09 517.716 1045.98 495.261 1032.2L463.823 1012.89C458.733 1009.9 457.834 1002.86 461.876 998.52L534.623 921.281C538.664 917.09 545.7 917.539 548.994 922.479L570.103 952.72C585.224 974.428 583.13 1003.62 565.019 1022.93Z" stroke="white" stroke-width="3" stroke-linecap="round" stroke-linejoin="round"/>
<path d="M477.308 982.061C458.894 964.695 453.354 940.743 464.879 928.468C476.405 916.343 500.656 920.537 519.07 937.903" stroke="white" stroke-width="3" stroke-linecap="round" stroke-linejoin="round"/>
<path d="M475.803 1020.23C497.958 1022.03 520.562 1013.95 537.027 996.587C553.493 979.073 560.078 956.02 557.082 934.014" stroke="white" stroke-width="3" stroke-linecap="round" stroke-linejoin="round"/>
<path d="M522.073 973.672C524.618 976.068 524.768 980.109 522.373 982.654C519.828 985.199 515.786 985.348 513.241 982.953C510.696 980.558 510.546 976.516 512.941 973.821C515.336 971.277 519.528 971.127 522.073 973.672Z" stroke="white" stroke-width="3" stroke-linecap="round" stroke-linejoin="round"/>
<path d="M-50.9252 1147.91L-102.423 1118.12L-102.428 1058.54L-50.9338 1028.9L0.564166 1058.54L0.568507 1118.12L-50.9252 1147.91Z" stroke="white" stroke-width="3" stroke-linecap="round" stroke-linejoin="round"/>
<path d="M127.917 1022.92C109.805 1042.08 80.6144 1045.97 58.1589 1032.19L26.7213 1012.88C21.6314 1009.89 20.7327 1002.85 24.7742 998.508L97.521 921.269C101.562 917.078 108.598 917.527 111.892 922.468L133.001 952.708C148.122 974.416 146.029 1003.61 127.917 1022.92Z" stroke="white" stroke-width="3" stroke-linecap="round" stroke-linejoin="round"/>
<path d="M40.2064 982.05C21.7925 964.683 16.252 940.731 27.7777 928.456C39.3034 916.332 63.5545 920.525 81.9684 937.891" stroke="white" stroke-width="3" stroke-linecap="round" stroke-linejoin="round"/>
<path d="M38.7016 1020.22C60.8568 1022.02 83.4605 1013.94 99.9258 996.575C116.391 979.061 122.976 956.008 119.981 934.002" stroke="white" stroke-width="3" stroke-linecap="round" stroke-linejoin="round"/>
<path d="M84.9711 973.664C87.5161 976.06 87.666 980.102 85.2711 982.646C82.7264 985.191 78.6846 985.34 76.1396 982.945C73.5946 980.55 73.4446 976.508 75.8396 973.813C78.2345 971.269 82.426 971.119 84.9711 973.664Z" stroke="white" stroke-width="3" stroke-linecap="round" stroke-linejoin="round"/>
<path d="M777.27 865.899C771.583 883.263 753.171 895.986 732.064 888.949C711.106 881.911 692.093 856.761 697.93 839.546C702.569 825.624 729.664 820.387 745.981 822.484C775.172 826.079 783.556 847.187 777.27 865.899Z" stroke="white" stroke-width="3" stroke-linecap="round" stroke-linejoin="round"/>
<path d="M603.03 807.806C597.343 825.17 604.231 846.278 625.338 853.316C646.446 860.353 676.683 851.523 682.52 834.308C687.01 820.386 668.596 800.026 654.225 791.792C628.776 777.269 609.316 788.944 603.03 807.806Z" stroke="white" stroke-width="3" stroke-linecap="round" stroke-linejoin="round"/>
<path d="M683.414 831.609C683.414 831.609 693.294 828.915 699.132 836.849" stroke="white" stroke-width="3" stroke-linecap="round" stroke-linejoin="round"/>
<path d="M669.5 803.914L726.534 822.928" stroke="white" stroke-width="3" stroke-linecap="round" stroke-linejoin="round"/>
<path d="M777.711 844.492L787.741 847.936L783.999 859.163L779.957 857.816" stroke="white" stroke-width="3" stroke-linecap="round" stroke-linejoin="round"/>
<path d="M615.615 790.439L605.735 787.145L601.993 798.372L605.885 799.719" stroke="white" stroke-width="3" stroke-linecap="round" stroke-linejoin="round"/>
<path d="M450.817 602.707L406.809 634.44L402.92 689.23L500.675 718.129L504.11 616.333L450.817 602.707Z" stroke="white" stroke-width="3" stroke-linecap="round" stroke-linejoin="round"/>
<path d="M402.927 689.234L504.115 616.339" stroke="white" stroke-width="3" stroke-linecap="round" stroke-linejoin="round"/>
<path d="M421.633 623.816L430.917 669.176L500.68 718.133" stroke="white" stroke-width="3" stroke-linecap="round" stroke-linejoin="round"/>
<path d="M435.992 613.48L476.113 636.388L500.67 718.127" stroke="white" stroke-width="3" stroke-linecap="round" stroke-linejoin="round"/>
<path d="M505.733 757.648C505.733 757.648 480.889 831.597 458.585 835.488C436.281 839.379 415.621 816.623 402.599 835.634L449.306 867.523L465.323 864.53L458.887 873.961L477.001 886.387C477.001 886.387 512.774 822.169 549.746 791.034L505.733 757.648Z" stroke="white" stroke-width="3" stroke-linecap="round" stroke-linejoin="round"/>
<path d="M753.91 671.28C749.117 630.112 783.846 620.384 783.846 620.384C783.846 620.384 768.576 608.407 751.511 613.944C746.57 596.729 728.007 590.889 728.007 590.889C728.007 590.889 739.686 625.171 703.011 644.33C659.152 667.381 645.532 713.188 645.532 713.188L687.449 735.346L729.366 757.505C729.366 757.505 759.603 720.382 753.91 671.28Z" stroke="white" stroke-width="3" stroke-linecap="round" stroke-linejoin="round"/>
<path d="M665.002 723.517L683.413 688.638" stroke="white" stroke-width="3" stroke-linecap="round" stroke-linejoin="round"/>
<path d="M340.2 865.891C334.513 883.255 316.101 895.978 294.994 888.941C274.036 881.904 255.023 856.753 260.86 839.538C265.499 825.617 292.594 820.379 308.91 822.476C338.101 826.071 346.486 847.179 340.2 865.891Z" stroke="white" stroke-width="3" stroke-linecap="round" stroke-linejoin="round"/>
<path d="M165.96 807.798C160.273 825.163 167.16 846.27 188.268 853.308C209.375 860.345 239.613 851.515 245.45 834.3C249.94 820.379 231.526 800.018 217.154 791.784C191.705 777.261 172.246 788.936 165.96 807.798Z" stroke="white" stroke-width="3" stroke-linecap="round" stroke-linejoin="round"/>
<path d="M246.344 831.601C246.344 831.601 256.223 828.907 262.062 836.841" stroke="white" stroke-width="3" stroke-linecap="round" stroke-linejoin="round"/>
<path d="M232.43 803.906L289.463 822.921" stroke="white" stroke-width="3" stroke-linecap="round" stroke-linejoin="round"/>
<path d="M340.641 844.484L350.671 847.928L346.929 859.156L342.887 857.808" stroke="white" stroke-width="3" stroke-linecap="round" stroke-linejoin="round"/>
<path d="M178.544 790.431L168.664 787.137L164.923 798.364L168.815 799.712" stroke="white" stroke-width="3" stroke-linecap="round" stroke-linejoin="round"/>
<path d="M13.7078 602.691L-30.3009 634.424L-34.1889 689.214L63.5655 718.113L67.0011 616.318L13.7078 602.691Z" stroke="white" stroke-width="3" stroke-linecap="round" stroke-linejoin="round"/>
<path d="M-34.1822 689.219L67.0059 616.324" stroke="white" stroke-width="3" stroke-linecap="round" stroke-linejoin="round"/>
<path d="M-15.4766 623.801L-6.192 669.161L63.5707 718.118" stroke="white" stroke-width="3" stroke-linecap="round" stroke-linejoin="round"/>
<path d="M-1.11719 613.465L39.0041 636.372L63.5608 718.111" stroke="white" stroke-width="3" stroke-linecap="round" stroke-linejoin="round"/>
<path d="M68.6397 757.636C68.6397 757.636 43.7955 831.586 21.4913 835.476C-0.812984 839.367 -21.4724 816.611 -34.4946 835.622L12.2124 867.511L28.2296 864.518L21.7934 873.949L39.9073 886.375C39.9073 886.375 75.6798 822.157 112.652 791.022L68.6397 757.636Z" stroke="white" stroke-width="3" stroke-linecap="round" stroke-linejoin="round"/>
<path d="M316.832 671.268C312.039 630.1 346.768 620.372 346.768 620.372C346.768 620.372 331.498 608.395 314.433 613.933C309.492 596.717 290.929 590.877 290.929 590.877C290.929 590.877 302.608 625.159 265.933 644.318C222.073 667.369 208.454 713.176 208.454 713.176L250.371 735.335L292.288 757.493C292.288 757.493 322.524 720.37 316.832 671.268Z" stroke="white" stroke-width="3" stroke-linecap="round" stroke-linejoin="round"/>
<path d="M227.924 723.506L246.335 688.626" stroke="white" stroke-width="3" stroke-linecap="round" stroke-linejoin="round"/>
</g>
</g>
</g>
<defs>
<clipPath id="clip0_2757_1806">
<rect width="2534" height="1056" fill="white"/>
</clipPath>
</defs>
</svg>
