<svg width="770" height="100" viewBox="0 0 770 100" fill="none" xmlns="http://www.w3.org/2000/svg">
<path d="M368.356 70.0021V35.9661L367.686 30.6061H383.906L395.704 54.0561L407.77 30.6061H423.12V70.0021H410.317V47.4231H409.58L406.762 54.6591L401.87 65.9821H389.672L384.576 54.6591L381.828 47.4231H381.158V70.0021H368.356ZM448.074 70.0021V53.7211L428.502 30.6061H444.656L451.292 39.7851L454.373 44.6761H455.043L458.128 39.7851L464.631 30.6061H480.785L478.17 34.6261L461.009 53.9891V70.0021H448.074ZM493.74 70.0021C490.699 70.0021 488.465 69.8681 487.037 69.6001C485.607 69.3321 484.89 69.0194 484.89 68.6621L488.911 60.0191C489.942 60.1977 492.063 60.3764 495.281 60.5551C498.499 60.6891 502.677 60.7561 507.816 60.7561H513.112C514.676 60.7561 515.723 60.5327 516.26 60.0861C516.797 59.6394 517.064 58.9917 517.064 58.1431V57.4731C517.064 56.4011 516.797 55.6641 516.26 55.2621C515.723 54.8601 514.676 54.6591 513.112 54.6591H497.762C493.247 54.6591 489.962 53.8327 487.908 52.1801C485.853 50.4827 484.823 47.7357 484.823 43.9391V41.5271C484.823 39.5617 485.183 37.7527 485.897 36.1001C486.657 34.4474 487.931 33.1297 489.718 32.1471C491.506 31.1197 493.964 30.6061 497.092 30.6061H519.345C522.069 30.6061 524.327 30.7624 526.114 31.0751C527.945 31.3877 528.862 31.7227 528.862 32.0801L526.851 40.3881C525.601 40.2541 523.233 40.1201 519.745 39.9861C516.307 39.8074 511.925 39.7181 506.609 39.7181L501.784 39.6511C500.396 39.6511 499.413 39.8521 498.832 40.2541C498.252 40.6114 497.939 41.3037 497.895 42.3311V42.8001C497.895 43.8274 498.209 44.5421 498.832 44.9441C499.459 45.3461 500.463 45.5471 501.85 45.5471H516.597C519.455 45.5471 521.892 45.8374 523.903 46.4181C525.914 46.9987 527.455 48.0707 528.529 49.6341C529.599 51.1527 530.136 53.4084 530.136 56.4011V58.8131C530.136 62.1631 529.266 64.8654 527.521 66.9201C525.824 68.9747 522.853 70.0021 518.608 70.0021H493.74ZM551.445 70.0021V39.6511H535.492V30.5391H580.601V39.6511H564.447V70.0021H551.445ZM587.297 70.0021V30.6061H600.166V70.0021H587.297ZM622.459 70.0021C619.331 70.0021 616.873 69.5554 615.086 68.6621C613.299 67.7687 612.025 66.4287 611.264 64.6421C610.551 62.8554 610.191 60.6444 610.191 58.0091V42.5321C610.191 39.9414 610.551 37.7751 611.264 36.0331C611.978 34.2464 613.232 32.9064 615.019 32.0131C616.807 31.0751 619.284 30.6061 622.459 30.6061H644.912C648.04 30.6061 650.475 31.1867 652.219 32.3481C654.006 33.4647 655.257 35.0281 655.974 37.0381C656.731 39.0034 657.111 41.2814 657.111 43.8721V49.9691C657.111 52.5597 656.911 54.7261 656.507 56.4681C656.107 58.2101 655.46 59.7064 654.566 60.9571C653.716 62.1631 652.556 63.3021 651.078 64.3741C649.604 65.4014 647.793 66.3394 645.649 67.1881C646.813 67.4561 647.997 67.7241 649.204 67.9921C650.455 68.2601 651.749 68.5504 653.089 68.8631C656.621 69.6224 659.368 70.1137 661.336 70.3371C663.347 70.5604 664.821 70.6721 665.758 70.6721L663.614 78.4441C663.3 78.5334 662.81 78.6674 662.14 78.8461C661.469 79.0247 660.462 79.1141 659.122 79.1141C657.604 79.1141 656.04 78.9577 654.43 78.6451C652.866 78.3771 651.078 77.9527 649.067 77.3721C647.193 76.7914 645.382 76.0767 643.638 75.2281C641.898 74.4241 640.043 73.6201 638.076 72.8161C636.108 72.0121 633.874 71.3421 631.373 70.8061C628.872 70.2701 625.897 70.0021 622.459 70.0021ZM628.625 60.8901H631.373C634.544 60.8901 637.049 60.5551 638.88 59.8851C640.757 59.2151 642.074 58.0091 642.835 56.2671C643.638 54.4804 644.042 51.9791 644.042 48.7631V44.4081C644.042 42.9787 643.618 41.8397 642.768 40.9911C641.964 40.1424 640.644 39.7181 638.813 39.7181H628.625C626.704 39.7181 625.317 40.1201 624.47 40.9241C623.663 41.6834 623.263 42.8447 623.263 44.4081V56.1331C623.263 57.7857 623.663 58.9917 624.47 59.7511C625.274 60.5104 626.658 60.8901 628.625 60.8901ZM681.068 70.6721C676.599 70.6721 673.201 69.6224 670.877 67.5231C668.599 65.4237 667.459 62.0291 667.459 57.3391V30.6061H680.531V56.1331C680.531 58.2324 681.045 59.6394 682.072 60.3541C683.099 61.0687 684.373 61.4261 685.893 61.4261H694.54C695.971 61.4261 697.222 61.0687 698.292 60.3541C699.366 59.5947 699.903 58.1877 699.903 56.1331V30.6061H712.772V57.3391C712.772 62.0291 711.631 65.4237 709.353 67.5231C707.119 69.6224 703.744 70.6721 699.232 70.6721H681.068ZM722.469 70.0021V30.6061H765.501V39.7181H735.538V45.2791H757.724V54.5921H735.538V60.8231H764.427L768.449 69.2651C768.449 69.4437 767.845 69.6224 766.642 69.8011C765.434 69.9351 763.357 70.0021 760.406 70.0021H722.469Z" fill="white"/>
<path d="M172.084 70.6721C170.296 70.6721 168.308 70.4041 166.118 69.8681C163.929 69.2874 161.761 67.9027 159.616 65.7141L156.801 62.9001C155.461 61.5601 154.165 60.4657 152.914 59.6171C151.707 58.7684 150.322 58.1431 148.758 57.7411C147.194 57.2944 145.228 57.0711 142.859 57.0711H142.323V70.0021H129.252V35.9661L128.582 30.5391H159.616C162.476 30.5391 164.778 30.8964 166.52 31.6111C168.308 32.2811 169.671 33.1967 170.609 34.3581C171.592 35.4747 172.263 36.7477 172.62 38.1771C172.978 39.6064 173.156 41.0581 173.156 42.5321V43.8051C173.156 46.4851 172.464 48.8971 171.078 51.0411C169.738 53.1404 167.593 54.6367 164.644 55.5301C165.761 56.2001 166.811 56.8924 167.794 57.6071C168.822 58.2771 169.984 58.9917 171.28 59.7511C172.754 60.5997 174.117 61.2251 175.368 61.6271C176.664 61.9844 177.737 62.2077 178.586 62.2971C179.435 62.3864 179.926 62.4311 180.06 62.4311L178.049 70.0021C177.513 70.1361 176.687 70.2701 175.569 70.4041C174.497 70.5827 173.335 70.6721 172.084 70.6721ZM150.098 48.1601C151.216 48.1601 152.288 48.1377 153.316 48.0931C154.388 48.0484 155.349 47.9814 156.198 47.8921C157.717 47.7134 158.745 47.2444 159.281 46.4851C159.862 45.6811 160.153 44.7207 160.153 43.6041V42.8671C160.153 41.8844 159.862 41.1251 159.281 40.5891C158.745 40.0531 157.74 39.7851 156.265 39.7851H142.323V47.8921C143.44 47.9367 144.669 48.0037 146.01 48.0931C147.35 48.1377 148.713 48.1601 150.098 48.1601ZM181.294 70.0021L200.933 30.6061H218.361L237.933 70.0021H223.522L220.237 62.8331H199.056L195.37 70.0021H181.294ZM202.743 53.5871H216.484L209.982 39.3161H209.312L202.743 53.5871ZM287.355 70.6721C285.568 70.6721 283.579 70.4041 281.39 69.8681C279.2 69.2874 277.033 67.9027 274.888 65.7141L272.073 62.9001C270.732 61.5601 269.436 60.4657 268.185 59.6171C266.979 58.7684 265.593 58.1431 264.029 57.7411C262.465 57.2944 260.499 57.0711 258.131 57.0711H257.595V70.0021H244.524V35.9661L243.854 30.5391H274.888C277.748 30.5391 280.049 30.8964 281.792 31.6111C283.579 32.2811 284.942 33.1967 285.881 34.3581C286.864 35.4747 287.534 36.7477 287.892 38.1771C288.249 39.6064 288.428 41.0581 288.428 42.5321V43.8051C288.428 46.4851 287.735 48.8971 286.35 51.0411C285.009 53.1404 282.865 54.6367 279.915 55.5301C281.032 56.2001 282.082 56.8924 283.066 57.6071C284.093 58.2771 285.255 58.9917 286.551 59.7511C288.026 60.5997 289.389 61.2251 290.64 61.6271C291.936 61.9844 293.008 62.2077 293.857 62.2971C294.706 62.3864 295.198 62.4311 295.332 62.4311L293.321 70.0021C292.785 70.1361 291.958 70.2701 290.841 70.4041C289.768 70.5827 288.607 70.6721 287.355 70.6721ZM265.37 48.1601C266.487 48.1601 267.56 48.1377 268.587 48.0931C269.66 48.0484 270.621 47.9814 271.47 47.8921C272.989 47.7134 274.017 47.2444 274.553 46.4851C275.134 45.6811 275.424 44.7207 275.424 43.6041V42.8671C275.424 41.8844 275.134 41.1251 274.553 40.5891C274.017 40.0531 273.011 39.7851 271.537 39.7851H257.595V47.8921C258.712 47.9367 259.941 48.0037 261.281 48.0931C262.622 48.1377 263.985 48.1601 265.37 48.1601ZM301.391 70.0021V30.6061H344.425V39.7181H314.462V45.2791H336.649V54.5921H314.462V60.8231H343.352L347.373 69.2651C347.373 69.4437 346.77 69.6224 345.563 69.8011C344.355 69.9351 342.278 70.0021 339.33 70.0021H301.391Z" fill="white"/>
<path fill-rule="evenodd" clip-rule="evenodd" d="M32.6807 0H19.8418V2C22.6344 1.70255 23.3092 2.39939 23.3433 4.66667L23.3786 20.9473L16.0069 14.3307L8.67042 7.66406L0 14.3307C3.87188 15.2731 5.10441 16.4471 5.33564 20.6641V62.8307C5.19575 67.4691 4.28916 68.6207 1.83413 69.1641L14.5063 81.4974V18.9037L23.3921 27.1916L23.5101 81.6667C23.1688 84.513 22.3854 85.9957 20.0085 87.6667L32.6807 100V4.66667H55.8574V27.1667L65.028 18.6667V5.5C65.1301 2.66158 66.0258 1.93872 68.6963 2.06332V0H32.6807ZM65.1946 28.3307L75.3657 18.9974V81.4974L88.0379 69.1641C85.2803 68.7104 84.421 67.7244 84.5363 63.8307V20.1641C84.5717 16.1674 85.5261 14.762 89.872 14.3307L81.2016 7.66406L70.8638 16.9974L44.7107 41.0151L44.5193 40.8333L36.0156 33V39.3333L56.191 57.6667V99.6667L68.8632 87.6667L68.7714 87.5971C66.5259 85.8954 65.2919 84.9603 65.3617 82V60L48.1173 44.2406L65.1946 28.3307Z" fill="url(#paint0_linear_2735_1968)"/>
<defs>
<linearGradient id="paint0_linear_2735_1968" x1="13" y1="9.5" x2="76.5" y2="80" gradientUnits="userSpaceOnUse">
<stop stop-color="#F265FF"/>
<stop offset="1" stop-color="#4DFFCF"/>
</linearGradient>
</defs>
</svg>
