<svg width="40" height="40" viewBox="0 0 40 40" fill="none" xmlns="http://www.w3.org/2000/svg">
<path d="M25.4801 9.74683e-07C22.9359 -3.62346e-05 20.8849 -7.33553e-05 19.2721 0.216782C17.5975 0.441936 16.1874 0.923592 15.0676 2.04344C14.0909 3.02006 13.5975 4.22021 13.3384 5.63042C13.0867 7.00076 13.0386 8.67777 13.0274 10.6899C13.0231 11.4605 13.6443 12.0887 14.4149 12.093C15.1856 12.0973 15.8137 11.4761 15.818 10.7055C15.8294 8.67103 15.8822 7.22902 16.0832 6.13461C16.2769 5.08008 16.588 4.46969 17.0408 4.01676C17.5558 3.50186 18.2788 3.16614 19.6438 2.98261C21.0492 2.79366 22.9117 2.7907 25.5822 2.7907H27.4427C30.1132 2.7907 31.9757 2.79366 33.3811 2.98261C34.7463 3.16614 35.4691 3.50186 35.9841 4.01676C36.4991 4.53167 36.8347 5.25461 37.0183 6.61976C37.2072 8.02506 37.2101 9.88761 37.2101 12.5581V27.4419C37.2101 30.1124 37.2072 31.9749 37.0183 33.3803C36.8347 34.7455 36.4991 35.4683 35.9841 35.9833C35.4691 36.4982 34.7463 36.8339 33.3811 37.0175C31.9757 37.2063 30.1132 37.2093 27.4427 37.2093H25.5822C22.9117 37.2093 21.0492 37.2063 19.6438 37.0175C18.2788 36.8339 17.5558 36.4982 17.0408 35.9833C16.588 35.5302 16.2769 34.92 16.0832 33.8655C15.8822 32.771 15.8294 31.3289 15.818 29.2945C15.8137 28.5239 15.1856 27.9027 14.4149 27.907C13.6443 27.9113 13.0231 28.5395 13.0274 29.3101C13.0386 31.3222 13.0867 32.9993 13.3384 34.3695C13.5975 35.7797 14.0909 36.9799 15.0676 37.9567C16.1874 39.0765 17.5975 39.5581 19.2721 39.7833C20.8849 40 22.9359 40 25.4801 40H27.5448C30.0892 40 32.14 40 33.753 39.7833C35.4276 39.5581 36.8375 39.0765 37.9575 37.9567C39.0773 36.8367 39.559 35.4268 39.7841 33.7522C40.001 32.1392 40.0008 30.0884 40.0008 27.544V12.4561C40.0008 9.9117 40.001 7.86088 39.7841 6.24791C39.559 4.57328 39.0773 3.16329 37.9575 2.04344C36.8375 0.923592 35.4276 0.441936 33.753 0.216782C32.14 -7.33553e-05 30.0892 -3.62346e-05 27.5448 9.74683e-07H25.4801Z" fill="#FF5252"/>
<path d="M25.5814 18.6049C26.352 18.6049 26.9767 19.2296 26.9767 20.0002C26.9767 20.7708 26.352 21.3956 25.5814 21.3956H5.16733L8.81505 24.5223C9.40017 25.0236 9.46793 25.9046 8.9664 26.4897C8.46489 27.0748 7.584 27.1425 6.9989 26.641L0.487274 21.0596C0.177991 20.7946 0 20.4075 0 20.0002C0 19.593 0.177991 19.2058 0.487274 18.9409L6.9989 13.3594C7.584 12.8579 8.46489 12.9256 8.9664 13.5107C9.46793 14.0958 9.40017 14.9767 8.81505 15.4782L5.16733 18.6049H25.5814Z" fill="#FF5252"/>
</svg>
