<svg width="768" height="100" viewBox="0 0 768 100" fill="none" xmlns="http://www.w3.org/2000/svg">
<path d="M367.399 70.0021V35.9661L366.73 30.6061H382.909L394.676 54.0561L406.71 30.6061H422.021V70.0021H409.252V47.4231H408.516L405.706 54.6591L400.826 65.9821H388.66L383.577 54.6591L380.837 47.4231H380.168V70.0021H367.399ZM446.91 70.0021V53.7211L427.389 30.6061H443.501L450.12 39.7851L453.193 44.6761H453.861L456.938 39.7851L463.424 30.6061H479.536L476.928 34.6261L459.812 53.9891V70.0021H446.91ZM492.458 70.0021C489.424 70.0021 487.196 69.8681 485.772 69.6001C484.345 69.3321 483.63 69.0194 483.63 68.6621L487.641 60.0191C488.669 60.1977 490.785 60.3764 493.994 60.5551C497.204 60.6891 501.372 60.7561 506.497 60.7561H511.779C513.339 60.7561 514.383 60.5327 514.919 60.0861C515.454 59.6394 515.721 58.9917 515.721 58.1431V57.4731C515.721 56.4011 515.454 55.6641 514.919 55.2621C514.383 54.8601 513.339 54.6591 511.779 54.6591H496.469C491.965 54.6591 488.689 53.8327 486.64 52.1801C484.591 50.4827 483.564 47.7357 483.564 43.9391V41.5271C483.564 39.5617 483.923 37.7527 484.635 36.1001C485.393 34.4474 486.664 33.1297 488.446 32.1471C490.229 31.1197 492.681 30.6061 495.8 30.6061H517.996C520.713 30.6061 522.965 30.7624 524.748 31.0751C526.574 31.3877 527.488 31.7227 527.488 32.0801L525.483 40.3881C524.235 40.2541 521.874 40.1201 518.395 39.9861C514.965 39.8074 510.595 39.7181 505.293 39.7181L500.48 39.6511C499.097 39.6511 498.115 39.8521 497.537 40.2541C496.958 40.6114 496.645 41.3037 496.602 42.3311V42.8001C496.602 43.8274 496.915 44.5421 497.537 44.9441C498.162 45.3461 499.163 45.5471 500.547 45.5471H515.255C518.105 45.5471 520.537 45.8374 522.542 46.4181C524.548 46.9987 526.085 48.0707 527.156 49.6341C528.223 51.1527 528.759 53.4084 528.759 56.4011V58.8131C528.759 62.1631 527.891 64.8654 526.151 66.9201C524.458 68.9747 521.495 70.0021 517.261 70.0021H492.458ZM550.013 70.0021V39.6511H534.101V30.5391H579.093V39.6511H562.981V70.0021H550.013ZM585.772 70.0021V30.6061H598.607V70.0021H585.772ZM620.842 70.0021C617.722 70.0021 615.271 69.5554 613.488 68.6621C611.706 67.7687 610.435 66.4287 609.677 64.6421C608.965 62.8554 608.606 60.6444 608.606 58.0091V42.5321C608.606 39.9414 608.965 37.7751 609.677 36.0331C610.388 34.2464 611.639 32.9064 613.422 32.0131C615.205 31.0751 617.676 30.6061 620.842 30.6061H643.237C646.357 30.6061 648.785 31.1867 650.525 32.3481C652.307 33.4647 653.555 35.0281 654.27 37.0381C655.025 39.0034 655.404 41.2814 655.404 43.8721V49.9691C655.404 52.5597 655.205 54.7261 654.802 56.4681C654.403 58.2101 653.758 59.7064 652.866 60.9571C652.018 62.1631 650.861 63.3021 649.387 64.3741C647.917 65.4014 646.111 66.3394 643.972 67.1881C645.133 67.4561 646.314 67.7241 647.518 67.9921C648.765 68.2601 650.056 68.5504 651.393 68.8631C654.915 69.6224 657.656 70.1137 659.618 70.3371C661.624 70.5604 663.094 70.6721 664.029 70.6721L661.89 78.4441C661.577 78.5334 661.088 78.6674 660.42 78.8461C659.751 79.0247 658.747 79.1141 657.41 79.1141C655.896 79.1141 654.336 78.9577 652.73 78.6451C651.17 78.3771 649.387 77.9527 647.381 77.3721C645.512 76.7914 643.706 76.0767 641.967 75.2281C640.23 74.4241 638.381 73.6201 636.419 72.8161C634.456 72.0121 632.228 71.3421 629.733 70.8061C627.239 70.2701 624.272 70.0021 620.842 70.0021ZM626.992 60.8901H629.733C632.896 60.8901 635.394 60.5551 637.22 59.8851C639.093 59.2151 640.407 58.0091 641.165 56.2671C641.967 54.4804 642.369 51.9791 642.369 48.7631V44.4081C642.369 42.9787 641.947 41.8397 641.098 40.9911C640.297 40.1424 638.98 39.7181 637.154 39.7181H626.992C625.077 39.7181 623.693 40.1201 622.848 40.9241C622.043 41.6834 621.644 42.8447 621.644 44.4081V56.1331C621.644 57.7857 622.043 58.9917 622.848 59.7511C623.65 60.5104 625.03 60.8901 626.992 60.8901ZM679.299 70.6721C674.842 70.6721 671.453 69.6224 669.134 67.5231C666.863 65.4237 665.725 62.0291 665.725 57.3391V30.6061H678.763V56.1331C678.763 58.2324 679.276 59.6394 680.3 60.3541C681.324 61.0687 682.595 61.4261 684.112 61.4261H692.736C694.163 61.4261 695.411 61.0687 696.478 60.3541C697.549 59.5947 698.085 58.1877 698.085 56.1331V30.6061H710.92V57.3391C710.92 62.0291 709.783 65.4237 707.511 67.5231C705.282 69.6224 701.916 70.6721 697.416 70.6721H679.299ZM720.593 70.0021V30.6061H763.513V39.7181H733.628V45.2791H755.756V54.5921H733.628V60.8231H762.442L766.453 69.2651C766.453 69.4437 765.851 69.6224 764.65 69.8011C763.446 69.9351 761.374 70.0021 758.43 70.0021H720.593Z" fill="white"/>
<path d="M170.968 70.6721C169.186 70.6721 167.425 70.4041 165.687 69.8681C163.993 69.2874 162.054 67.9027 159.87 65.7141L155.057 60.8901C153.096 58.8801 150.934 57.4061 148.572 56.4681C146.254 55.5301 143.335 55.0611 139.814 55.0611H137.741V70.0021H128.917V35.9661L128.248 30.5391H157.865C160.717 30.5391 162.946 30.9187 164.55 31.6781C166.199 32.4374 167.403 33.4424 168.16 34.6931C168.963 35.8991 169.475 37.1944 169.698 38.5791C169.921 39.9637 170.032 41.2814 170.032 42.5321V43.8051C170.032 44.7877 169.899 45.8821 169.631 47.0881C169.364 48.2941 168.851 49.4777 168.094 50.6391C167.336 51.8004 166.244 52.7831 164.818 53.5871C163.436 54.3911 161.609 54.8601 159.336 54.9941C159.915 55.3067 160.65 55.7981 161.542 56.4681C162.433 57.0934 163.347 57.7857 164.283 58.5451C165.263 59.3044 166.155 59.9967 166.957 60.6221C167.759 61.2474 168.383 61.6941 168.829 61.9621C170.434 62.9001 171.86 63.5477 173.108 63.9051C174.356 64.2624 175.381 64.4634 176.183 64.5081C176.985 64.5527 177.453 64.5751 177.587 64.5751L176.25 70.0021C175.849 70.1361 175.18 70.2701 174.244 70.4041C173.308 70.5827 172.216 70.6721 170.968 70.6721ZM147.77 48.9641C149.463 48.9641 150.979 48.9417 152.316 48.8971C153.653 48.8077 154.856 48.7184 155.926 48.6291C157.887 48.4057 159.246 47.8697 160.004 47.0211C160.806 46.1277 161.208 44.9887 161.208 43.6041V42.0631C161.208 40.6337 160.829 39.4277 160.071 38.4451C159.313 37.4624 157.954 36.9711 155.993 36.9711H137.741V48.6291C139.703 48.7631 141.508 48.8524 143.157 48.8971C144.806 48.9417 146.343 48.9641 147.77 48.9641ZM178.264 70.0021L197.852 30.6061H211.023L230.544 70.0021H220.249L216.304 61.4931H192.37L188.025 70.0021H178.264ZM194.777 54.9271H213.831L204.672 36.6361H204.003L194.777 54.9271ZM278.628 70.6721C276.846 70.6721 275.085 70.4041 273.347 69.8681C271.653 69.2874 269.714 67.9027 267.53 65.7141L262.717 60.8901C260.756 58.8801 258.594 57.4061 256.232 56.4681C253.914 55.5301 250.995 55.0611 247.474 55.0611H245.401V70.0021H236.577V35.9661L235.908 30.5391H265.525C268.377 30.5391 270.606 30.9187 272.21 31.6781C273.859 32.4374 275.063 33.4424 275.82 34.6931C276.623 35.8991 277.135 37.1944 277.358 38.5791C277.581 39.9637 277.692 41.2814 277.692 42.5321V43.8051C277.692 44.7877 277.559 45.8821 277.291 47.0881C277.024 48.2941 276.511 49.4777 275.754 50.6391C274.996 51.8004 273.904 52.7831 272.478 53.5871C271.096 54.3911 269.269 54.8601 266.996 54.9941C267.575 55.3067 268.31 55.7981 269.202 56.4681C270.093 57.0934 271.007 57.7857 271.943 58.5451C272.923 59.3044 273.815 59.9967 274.617 60.6221C275.419 61.2474 276.043 61.6941 276.489 61.9621C278.094 62.9001 279.52 63.5477 280.768 63.9051C282.016 64.2624 283.041 64.4634 283.843 64.5081C284.645 64.5527 285.113 64.5751 285.247 64.5751L283.91 70.0021C283.509 70.1361 282.84 70.2701 281.904 70.4041C280.968 70.5827 279.876 70.6721 278.628 70.6721ZM255.43 48.9641C257.123 48.9641 258.639 48.9417 259.976 48.8971C261.313 48.8077 262.516 48.7184 263.586 48.6291C265.547 48.4057 266.906 47.8697 267.664 47.0211C268.466 46.1277 268.868 44.9887 268.868 43.6041V42.0631C268.868 40.6337 268.489 39.4277 267.731 38.4451C266.973 37.4624 265.614 36.9711 263.653 36.9711H245.401V48.6291C247.363 48.7631 249.168 48.8524 250.817 48.8971C252.466 48.9417 254.003 48.9641 255.43 48.9641ZM291.272 70.0021V30.6061H332.857V37.0381H300.097V46.2841H325.101V52.9171H300.097V63.5701H333.123L335.798 69.2651C335.798 69.4437 335.196 69.6224 333.992 69.8011C332.788 69.9351 330.717 70.0021 327.775 70.0021H291.272Z" fill="white"/>
<path fill-rule="evenodd" clip-rule="evenodd" d="M32.5966 0H19.791V2C22.5764 1.70255 23.2494 2.39939 23.2834 4.66667L23.3186 20.948L15.9654 14.3307L8.6479 7.66406L0 14.3307C3.86182 15.2731 5.09115 16.4471 5.32178 20.6641V62.8307C5.18225 67.4691 4.27802 68.6207 1.82936 69.1641L14.4686 81.4974V18.9037L23.3321 27.1923L23.4497 81.6667C23.1094 84.513 22.328 85.9957 19.9573 87.6667L32.5966 100V4.66667H55.7131V27.1667L64.8599 18.6667V5.5C64.9617 2.66158 65.8551 1.93872 68.5186 2.06332V0H32.5966ZM65.0248 28.3307L75.1695 18.9974V81.4974L87.8087 69.1641C85.0584 68.7104 84.2012 67.7244 84.3163 63.8307V20.1641C84.3516 16.1674 85.3035 14.762 89.6381 14.3307L80.9902 7.66406L70.6792 16.9974L44.5943 41.015L44.4035 40.8333L35.9219 33V39.3333L56.0449 57.6667V99.6667L68.6841 87.6667L68.5926 87.5971C66.3529 85.8954 65.1221 84.9603 65.1917 82V60L47.992 44.2404L65.0248 28.3307Z" fill="url(#paint0_linear_2729_1940)"/>
<defs>
<linearGradient id="paint0_linear_2729_1940" x1="12.9662" y1="9.5" x2="76.4832" y2="79.8354" gradientUnits="userSpaceOnUse">
<stop stop-color="#F265FF"/>
<stop offset="1" stop-color="#4DFFCF"/>
</linearGradient>
</defs>
</svg>
