<svg width="40" height="37" viewBox="0 0 40 37" fill="none" xmlns="http://www.w3.org/2000/svg">
<path d="M20 36.4244C19.7448 36.4244 19.4921 36.3747 19.2563 36.2778L1.20063 28.8099C0.844954 28.6634 0.540884 28.4144 0.327091 28.0947C0.113297 27.7749 -0.000558811 27.3988 2.45797e-06 27.0141V9.4123C-0.000609753 9.02772 0.113154 8.65164 0.326831 8.33187C0.540508 8.01211 0.844446 7.76311 1.2 7.61652L19.257 0.146837C19.7332 -0.0489456 20.2674 -0.0489456 20.7436 0.146837L38.7994 7.61652C39.155 7.76301 39.4591 8.01197 39.6729 8.33174C39.8867 8.65151 40.0006 9.02765 40 9.4123V27.0141C40.0006 27.3987 39.8868 27.7748 39.6732 28.0945C39.4595 28.4143 39.1556 28.6633 38.8 28.8099L20.743 36.2796C20.5072 36.3759 20.2548 36.4251 20 36.4244ZM20 1.21231C19.9042 1.21212 19.8093 1.23065 19.7206 1.26684L1.66422 8.73652C1.53007 8.79125 1.41535 8.88483 1.33479 9.00525C1.25423 9.12567 1.2115 9.26742 1.21211 9.4123V27.0141C1.2115 27.159 1.25423 27.3007 1.33479 27.4212C1.41535 27.5416 1.53007 27.6352 1.66422 27.6899L19.7205 35.1596C19.8996 35.2329 20.1003 35.2329 20.2793 35.1596L38.3356 27.6899C38.4698 27.6352 38.5845 27.5416 38.6651 27.4212C38.7456 27.3007 38.7883 27.159 38.7877 27.0141V9.4123C38.7883 9.26742 38.7456 9.12567 38.6651 9.00525C38.5845 8.88483 38.4698 8.79125 38.3356 8.73652L20.2793 1.26621C20.1906 1.23021 20.0957 1.2119 20 1.21231Z" fill="black"/>
<path d="M8.44922 5.72234L25.5892 13.9962L26.9626 13.3162L9.55703 4.91023L8.44922 5.72234ZM12.6813 3.50477L30.3644 12.0375L31.6292 11.3041L14.0649 2.82422L12.6813 3.50477Z" fill="black"/>
<path d="M20.6066 35.8258H19.3945V16.5427C19.3946 16.4229 19.4302 16.3057 19.4968 16.2062C19.5635 16.1066 19.6583 16.029 19.7691 15.9834L38.8981 8.06641L39.3612 9.18641L20.6066 16.9477V35.8258Z" fill="black"/>
<path d="M0.636719 9.18242L1.09969 8.0625L20.2288 15.9709L19.7658 17.0908L0.636719 9.18242ZM30.7584 12.0416V20.1144C30.7581 20.126 30.7545 20.1373 30.7481 20.1469C30.7417 20.1566 30.7326 20.1642 30.722 20.1689L27.3827 21.5992L27.2917 21.5447V13.472L26.0796 13.775V21.5447C26.0799 21.7562 26.1327 21.9644 26.2332 22.1505C26.3337 22.3367 26.4787 22.495 26.6554 22.6113C26.8626 22.7467 27.1049 22.8183 27.3523 22.8174C27.5256 22.8205 27.6973 22.7853 27.8554 22.7144L31.2009 21.2841C31.4294 21.1856 31.6241 21.0224 31.7609 20.8145C31.8977 20.6066 31.9706 20.3632 31.9705 20.1144V11.8416L30.7584 12.0416ZM24.0129 28.5126C23.9333 28.5126 23.8544 28.4969 23.7809 28.4664C23.7074 28.4359 23.6406 28.3912 23.5843 28.3348C23.5281 28.2785 23.4835 28.2116 23.4532 28.138C23.4228 28.0644 23.4073 27.9855 23.4074 27.9059C23.4075 27.7851 23.4438 27.667 23.5115 27.5669C23.5792 27.4668 23.6753 27.3892 23.7874 27.3441L27.1305 26.0072C27.2039 25.9764 27.2826 25.9605 27.3622 25.9602C27.4418 25.9599 27.5207 25.9753 27.5943 26.0056C27.6679 26.0358 27.7349 26.0802 27.7913 26.1364C27.8478 26.1925 27.8926 26.2592 27.9232 26.3327C27.9539 26.4061 27.9699 26.4848 27.9702 26.5644C27.9705 26.644 27.9551 26.7229 27.9248 26.7965C27.8946 26.8701 27.8502 26.9371 27.794 26.9935C27.7379 27.0499 27.6712 27.0948 27.5977 27.1254C27.5916 27.1278 27.5862 27.1302 27.5802 27.1327L24.2371 28.4696C24.1658 28.498 24.0897 28.5126 24.0129 28.5126ZM24.0129 31.8562C23.872 31.8563 23.7354 31.8073 23.6266 31.7176C23.5179 31.6279 23.4438 31.5032 23.4172 31.3648C23.3905 31.2264 23.4128 31.083 23.4804 30.9594C23.548 30.8357 23.6565 30.7394 23.7874 30.6871L30.4735 28.0126C30.5474 27.983 30.6265 27.9683 30.7061 27.9692C30.7857 27.9702 30.8644 27.9869 30.9376 28.0183C31.0108 28.0497 31.077 28.0953 31.1326 28.1523C31.1882 28.2094 31.2319 28.2768 31.2614 28.3508C31.3856 28.6617 31.2348 29.0145 30.9238 29.1387L24.2377 31.8132C24.1662 31.8416 24.0899 31.8562 24.0129 31.8562Z" fill="black"/>
</svg>
