<svg width="38" height="41" viewBox="0 0 38 41" fill="none" xmlns="http://www.w3.org/2000/svg">
<path d="M1.06585 40.3047H0.973476C0.373014 40.2585 -0.0426897 39.7504 0.00349965 39.1961C0.603961 30.374 8.91805 23.4918 18.895 23.4918C28.8719 23.4918 37.1859 30.374 37.7864 39.15C37.8326 39.7504 37.3707 40.2123 36.8164 40.2585C36.216 40.3047 35.7541 39.8428 35.7079 39.2885C35.1536 31.5749 27.7633 25.5703 18.895 25.5703C9.98041 25.5703 2.5901 31.6211 2.08202 39.3347C2.03583 39.889 1.57394 40.3047 1.06585 40.3047ZM18.895 21.367C13.0751 21.367 8.36378 16.6557 8.36378 10.8359C8.36378 5.016 13.0751 0.304688 18.895 0.304688C24.7148 0.304688 29.4261 5.016 29.4261 10.8359C29.4261 16.6557 24.7148 21.367 18.895 21.367ZM18.895 2.4294C14.276 2.4294 10.4885 6.21693 10.4885 10.8359C10.4885 15.4548 14.276 19.2423 18.895 19.2423C23.5139 19.2423 27.3014 15.4548 27.3014 10.8359C27.3014 6.21693 23.5139 2.4294 18.895 2.4294Z" fill="black"/>
</svg>
