<svg width="54" height="55" viewBox="0 0 54 55" fill="none" xmlns="http://www.w3.org/2000/svg">
<path fill-rule="evenodd" clip-rule="evenodd" d="M35.2961 34.683C25.696 34.683 17.942 26.1199 17.942 15.5938C17.942 26.1199 10.1573 34.683 0.587891 34.683C10.1573 34.683 17.942 43.2122 17.942 53.7384C17.942 43.2122 25.696 34.683 35.2961 34.683Z" fill="#FFD93B"/>
<path fill-rule="evenodd" clip-rule="evenodd" d="M53.1119 44.5415C47.8503 44.5415 43.6041 39.8369 43.6041 34.0831C43.6041 39.8369 39.3271 44.5415 34.0962 44.5415C39.3271 44.5415 43.6041 49.2123 43.6041 55C43.6041 49.2123 47.8503 44.5415 53.1119 44.5415ZM47.6349 12.7262C41.2348 12.7262 36.0655 7.04 36.0655 0C36.0655 7.04 30.8962 12.7262 24.4961 12.7262C30.8962 12.7262 36.0655 18.4123 36.0655 25.4523C36.0655 18.4123 41.2348 12.7262 47.6349 12.7262Z" fill="#FFB030"/>
</svg>
