<svg width="300" height="300" viewBox="0 0 300 300" fill="none" xmlns="http://www.w3.org/2000/svg">
<rect width="300" height="300" rx="30" fill="black"/>
<path d="M30.5957 55.1088L53.5998 37.375L73.0647 55.1088L94.7417 74.6161V91.2675L69.0833 67.2732V233.777L35.4619 200.97C41.9755 199.524 44.3809 196.461 44.7521 184.122V71.956C44.1385 60.7385 40.8684 57.6156 30.5957 55.1088Z" fill="white"/>
<path d="M230.552 67.5225L203.567 92.3499L158.001 134.911L147.826 127.374L218.608 62.2024L246.036 37.375L269.04 55.1088C257.51 56.2559 254.977 59.9944 254.884 70.6259V186.783C254.577 197.14 256.857 199.763 264.174 200.97L230.552 233.777V67.5225Z" fill="white"/>
<path d="M126.15 104.766L148.712 125.603L157.56 134.026L204.01 176.588V235.109C203.823 243.09 207.188 245.538 213.3 250.183L179.679 282.104V170.381L126.15 121.613V104.766Z" fill="white"/>
<path d="M83.2422 16.9922H117.306H212.861V22.4808C205.776 22.1493 203.399 24.0722 203.129 31.6226V66.6469L178.798 89.2576V29.4059H117.306V283L83.6846 250.192C89.9908 245.747 92.0694 241.803 92.9747 234.232L92.5323 29.4059C92.4418 23.3747 90.6515 21.5211 83.2422 22.3123V16.9922Z" fill="white"/>
</svg>
