<svg width="50" height="50" viewBox="0 0 50 50" fill="none" xmlns="http://www.w3.org/2000/svg">
<path d="M25 50C38.8071 50 50 38.8071 50 25C50 11.1929 38.8071 0 25 0C11.1929 0 0 11.1929 0 25C0 38.8071 11.1929 50 25 50Z" fill="url(#paint0_linear_2803_440)"/>
<path d="M34.3057 32.6443L35.4162 25.5881H28.4691V21.0111C28.4691 19.0802 29.4379 17.197 32.5495 17.197H35.7098V11.1897C35.7098 11.1897 32.8429 10.7129 30.1032 10.7129C24.3791 10.7129 20.6414 14.0931 20.6414 20.21V25.5881H14.2812V32.6443H20.6414V49.7031C21.9182 49.8986 23.2245 49.9986 24.5552 49.9986C25.8859 49.9986 27.1923 49.8986 28.4691 49.7031V32.6443H34.3057Z" fill="white"/>
<defs>
<linearGradient id="paint0_linear_2803_440" x1="25" y1="0" x2="25" y2="49.8518" gradientUnits="userSpaceOnUse">
<stop stop-color="#18ACFE"/>
<stop offset="1" stop-color="#0163E0"/>
</linearGradient>
</defs>
</svg>
