<svg width="50" height="50" viewBox="0 0 50 50" fill="none" xmlns="http://www.w3.org/2000/svg">
<path d="M16.668 25C16.668 20.3978 20.3978 16.666 25 16.666C29.6022 16.666 33.334 20.3978 33.334 25C33.334 29.6022 29.6022 33.334 25 33.334C20.3978 33.334 16.668 29.6022 16.668 25ZM12.1628 25C12.1628 32.09 17.91 37.8372 25 37.8372C32.09 37.8372 37.8372 32.09 37.8372 25C37.8372 17.91 32.09 12.1628 25 12.1628C17.91 12.1628 12.1628 17.91 12.1628 25ZM35.3454 11.6538C35.3452 12.2471 35.5209 12.8272 35.8503 13.3207C36.1798 13.8142 36.6482 14.1989 37.1962 14.4262C37.7443 14.6535 38.3475 14.7131 38.9295 14.5976C39.5115 14.4821 40.0461 14.1966 40.4659 13.7772C40.8856 13.3578 41.1715 12.8233 41.2875 12.2414C41.4035 11.6596 41.3443 11.0563 41.1175 10.5081C40.8907 9.95979 40.5063 9.4911 40.0131 9.16126C39.5199 8.83142 38.9399 8.65524 38.3466 8.655H38.3454C37.5501 8.65537 36.7874 8.9714 36.2249 9.53366C35.6624 10.0959 35.3461 10.8585 35.3454 11.6538ZM14.9 45.3494C12.4626 45.2384 11.1378 44.8324 10.2574 44.4894C9.0902 44.035 8.2574 43.4938 7.3818 42.6194C6.5062 41.745 5.9642 40.913 5.5118 39.7458C5.1686 38.8658 4.7626 37.5406 4.6518 35.1032C4.5306 32.468 4.5064 31.6764 4.5064 25.0002C4.5064 18.324 4.5326 17.5346 4.6518 14.8972C4.7628 12.4598 5.1718 11.1372 5.5118 10.2546C5.9662 9.0874 6.5074 8.2546 7.3818 7.379C8.2562 6.5034 9.0882 5.9614 10.2574 5.509C11.1374 5.1658 12.4626 4.7598 14.9 4.649C17.5352 4.5278 18.3268 4.5036 25 4.5036C31.6732 4.5036 32.4656 4.5298 35.103 4.649C37.5404 4.76 38.863 5.169 39.7456 5.509C40.9128 5.9614 41.7456 6.5046 42.6212 7.379C43.4968 8.2534 44.0368 9.0874 44.4912 10.2546C44.8344 11.1346 45.2404 12.4598 45.3512 14.8972C45.4724 17.5346 45.4966 18.324 45.4966 25.0002C45.4966 31.6764 45.4724 32.4658 45.3512 35.1032C45.2402 37.5406 44.8322 38.8654 44.4912 39.7458C44.0368 40.913 43.4956 41.7458 42.6212 42.6194C41.7468 43.493 40.9128 44.035 39.7456 44.4894C38.8656 44.8326 37.5404 45.2386 35.103 45.3494C32.4678 45.4706 31.6762 45.4948 25 45.4948C18.3238 45.4948 17.5344 45.4706 14.9 45.3494ZM14.693 0.1514C12.0316 0.2726 10.213 0.6946 8.6248 1.3126C6.98 1.9508 5.5876 2.807 4.1962 4.1962C2.8048 5.5854 1.9508 6.98 1.3126 8.6248C0.6946 10.214 0.2726 12.0316 0.1514 14.693C0.0282 17.3586 0 18.2108 0 25C0 31.7892 0.0282 32.6414 0.1514 35.307C0.2726 37.9686 0.6946 39.786 1.3126 41.3752C1.9508 43.019 2.805 44.4152 4.1962 45.8038C5.5874 47.1924 6.98 48.0474 8.6248 48.6874C10.216 49.3054 12.0316 49.7274 14.693 49.8486C17.36 49.9698 18.2108 50 25 50C31.7892 50 32.6414 49.9718 35.307 49.8486C37.9686 49.7274 39.786 49.3054 41.3752 48.6874C43.019 48.0474 44.4124 47.193 45.8038 45.8038C47.1952 44.4146 48.0474 43.019 48.6874 41.3752C49.3054 39.786 49.7294 37.9684 49.8486 35.307C49.9698 32.6394 49.998 31.7892 49.998 25C49.998 18.2108 49.9698 17.3586 49.8486 14.693C49.7274 12.0314 49.3054 10.213 48.6874 8.6248C48.0474 6.981 47.193 5.5876 45.8038 4.1962C44.4146 2.8048 43.019 1.9508 41.3772 1.3126C39.786 0.6946 37.9684 0.2706 35.309 0.1514C32.6434 0.0302 31.7912 0 25.002 0C18.2128 0 17.36 0.0282 14.693 0.1514Z" fill="url(#paint0_radial_2803_436)"/>
<path d="M16.668 25C16.668 20.3978 20.3978 16.666 25 16.666C29.6022 16.666 33.334 20.3978 33.334 25C33.334 29.6022 29.6022 33.334 25 33.334C20.3978 33.334 16.668 29.6022 16.668 25ZM12.1628 25C12.1628 32.09 17.91 37.8372 25 37.8372C32.09 37.8372 37.8372 32.09 37.8372 25C37.8372 17.91 32.09 12.1628 25 12.1628C17.91 12.1628 12.1628 17.91 12.1628 25ZM35.3454 11.6538C35.3452 12.2471 35.5209 12.8272 35.8503 13.3207C36.1798 13.8142 36.6482 14.1989 37.1962 14.4262C37.7443 14.6535 38.3475 14.7131 38.9295 14.5976C39.5115 14.4821 40.0461 14.1966 40.4659 13.7772C40.8856 13.3578 41.1715 12.8233 41.2875 12.2414C41.4035 11.6596 41.3443 11.0563 41.1175 10.5081C40.8907 9.95979 40.5063 9.4911 40.0131 9.16126C39.5199 8.83142 38.9399 8.65524 38.3466 8.655H38.3454C37.5501 8.65537 36.7874 8.9714 36.2249 9.53366C35.6624 10.0959 35.3461 10.8585 35.3454 11.6538ZM14.9 45.3494C12.4626 45.2384 11.1378 44.8324 10.2574 44.4894C9.0902 44.035 8.2574 43.4938 7.3818 42.6194C6.5062 41.745 5.9642 40.913 5.5118 39.7458C5.1686 38.8658 4.7626 37.5406 4.6518 35.1032C4.5306 32.468 4.5064 31.6764 4.5064 25.0002C4.5064 18.324 4.5326 17.5346 4.6518 14.8972C4.7628 12.4598 5.1718 11.1372 5.5118 10.2546C5.9662 9.0874 6.5074 8.2546 7.3818 7.379C8.2562 6.5034 9.0882 5.9614 10.2574 5.509C11.1374 5.1658 12.4626 4.7598 14.9 4.649C17.5352 4.5278 18.3268 4.5036 25 4.5036C31.6732 4.5036 32.4656 4.5298 35.103 4.649C37.5404 4.76 38.863 5.169 39.7456 5.509C40.9128 5.9614 41.7456 6.5046 42.6212 7.379C43.4968 8.2534 44.0368 9.0874 44.4912 10.2546C44.8344 11.1346 45.2404 12.4598 45.3512 14.8972C45.4724 17.5346 45.4966 18.324 45.4966 25.0002C45.4966 31.6764 45.4724 32.4658 45.3512 35.1032C45.2402 37.5406 44.8322 38.8654 44.4912 39.7458C44.0368 40.913 43.4956 41.7458 42.6212 42.6194C41.7468 43.493 40.9128 44.035 39.7456 44.4894C38.8656 44.8326 37.5404 45.2386 35.103 45.3494C32.4678 45.4706 31.6762 45.4948 25 45.4948C18.3238 45.4948 17.5344 45.4706 14.9 45.3494ZM14.693 0.1514C12.0316 0.2726 10.213 0.6946 8.6248 1.3126C6.98 1.9508 5.5876 2.807 4.1962 4.1962C2.8048 5.5854 1.9508 6.98 1.3126 8.6248C0.6946 10.214 0.2726 12.0316 0.1514 14.693C0.0282 17.3586 0 18.2108 0 25C0 31.7892 0.0282 32.6414 0.1514 35.307C0.2726 37.9686 0.6946 39.786 1.3126 41.3752C1.9508 43.019 2.805 44.4152 4.1962 45.8038C5.5874 47.1924 6.98 48.0474 8.6248 48.6874C10.216 49.3054 12.0316 49.7274 14.693 49.8486C17.36 49.9698 18.2108 50 25 50C31.7892 50 32.6414 49.9718 35.307 49.8486C37.9686 49.7274 39.786 49.3054 41.3752 48.6874C43.019 48.0474 44.4124 47.193 45.8038 45.8038C47.1952 44.4146 48.0474 43.019 48.6874 41.3752C49.3054 39.786 49.7294 37.9684 49.8486 35.307C49.9698 32.6394 49.998 31.7892 49.998 25C49.998 18.2108 49.9698 17.3586 49.8486 14.693C49.7274 12.0314 49.3054 10.213 48.6874 8.6248C48.0474 6.981 47.193 5.5876 45.8038 4.1962C44.4146 2.8048 43.019 1.9508 41.3772 1.3126C39.786 0.6946 37.9684 0.2706 35.309 0.1514C32.6434 0.0302 31.7912 0 25.002 0C18.2128 0 17.36 0.0282 14.693 0.1514Z" fill="url(#paint1_radial_2803_436)"/>
<defs>
<radialGradient id="paint0_radial_2803_436" cx="0" cy="0" r="1" gradientUnits="userSpaceOnUse" gradientTransform="translate(6.6428 50.2362) scale(65.2708 65.2708)">
<stop offset="0.09" stop-color="#FA8F21"/>
<stop offset="0.78" stop-color="#D82D7E"/>
</radialGradient>
<radialGradient id="paint1_radial_2803_436" cx="0" cy="0" r="1" gradientUnits="userSpaceOnUse" gradientTransform="translate(30.3228 52.4762) scale(51.4424)">
<stop offset="0.64" stop-color="#8C3AAA" stop-opacity="0"/>
<stop offset="1" stop-color="#8C3AAA"/>
</radialGradient>
</defs>
</svg>
