<svg width="50" height="50" viewBox="0 0 50 50" fill="none" xmlns="http://www.w3.org/2000/svg">
<path d="M25 50C38.8071 50 50 38.8071 50 25C50 11.1929 38.8071 0 25 0C11.1929 0 0 11.1929 0 25C0 38.8071 11.1929 50 25 50Z" fill="url(#paint0_linear_2803_432)"/>
<path d="M37.4772 14.6586C37.6997 13.2202 36.3322 12.0849 35.0533 12.6464L9.58115 23.83C8.66402 24.2327 8.73111 25.622 9.68231 25.9248L14.9352 27.5977C15.9379 27.917 17.0234 27.7518 17.899 27.147L29.7422 18.9648C30.0993 18.718 30.4886 19.2259 30.1834 19.5404L21.6584 28.3296C20.8315 29.1823 20.9956 30.6271 21.9904 31.2509L31.535 37.2362C32.6056 37.9075 33.9827 37.2332 34.1829 35.9395L37.4772 14.6586Z" fill="white"/>
<defs>
<linearGradient id="paint0_linear_2803_432" x1="25" y1="0" x2="25" y2="50" gradientUnits="userSpaceOnUse">
<stop stop-color="#37BBFE"/>
<stop offset="1" stop-color="#007DBB"/>
</linearGradient>
</defs>
</svg>
