<svg width="50" height="50" viewBox="0 0 50 50" fill="none" xmlns="http://www.w3.org/2000/svg">
<circle cx="25" cy="25" r="25" fill="#25D366"/>
<path d="M12.7276 38.0404L14.0948 31.6927C12.3376 28.9211 11.6521 25.6035 12.1669 22.3623C12.6818 19.1212 14.3616 16.1794 16.8912 14.0887C19.4208 11.998 22.6263 10.9022 25.9064 11.0069C29.1865 11.1115 32.3157 12.4095 34.7068 14.6572C37.098 16.9049 38.5868 19.9479 38.894 23.2152C39.2012 26.4825 38.3055 29.7497 36.3752 32.4037C34.4448 35.0576 31.6124 36.916 28.4093 37.6302C25.2062 38.3443 21.8525 37.8651 18.9776 36.2825L12.7276 38.0404Z" fill="#25D366" stroke="white" stroke-width="2"/>
<path d="M30.7983 26.3223C30.5053 26.127 30.2123 26.0293 29.9194 26.4199L28.7475 27.9824C28.4545 28.1777 28.2592 28.2754 27.8686 28.0801C26.4037 27.2988 24.353 26.4199 22.5951 23.4902C22.4975 23.0996 22.6928 22.9043 22.8881 22.709L23.767 21.3418C23.9623 21.1465 23.8647 20.9512 23.767 20.7559L22.5951 17.9238C22.3022 17.1426 22.0092 17.2402 21.7162 17.2402H20.935C20.7397 17.2402 20.349 17.3379 19.9584 17.7285C17.81 19.877 18.6889 22.9043 20.2514 24.8574C20.5444 25.248 22.4975 28.7637 26.6967 30.6191C29.8217 31.9863 30.5053 31.791 31.3842 31.5957C32.4584 31.498 33.5326 30.6191 34.0209 29.7402C34.1186 29.4473 34.6069 28.1777 34.2162 27.9824" fill="white"/>
</svg>
